<?xml version="1.0" encoding="UTF-8" standalone="no"?>
<!-- Created with Inkscape (http://www.inkscape.org/) -->

<svg
   xmlns:dc="http://purl.org/dc/elements/1.1/"
   xmlns:cc="http://creativecommons.org/ns#"
   xmlns:rdf="http://www.w3.org/1999/02/22-rdf-syntax-ns#"
   xmlns:svg="http://www.w3.org/2000/svg"
   xmlns="http://www.w3.org/2000/svg"
   xmlns:sodipodi="http://sodipodi.sourceforge.net/DTD/sodipodi-0.dtd"
   xmlns:inkscape="http://www.inkscape.org/namespaces/inkscape"
   width="23.558041mm"
   height="32.420971mm"
   viewBox="0 0 23.558041 32.420971"
   version="1.1"
   id="svg2878"
   inkscape:version="0.92.4 (5da689c313, 2019-01-14)"
   sodipodi:docname="r-hand-pointing.svg">
  <defs
     id="defs2872" />
  <sodipodi:namedview
     id="base"
     pagecolor="#ffffff"
     bordercolor="#666666"
     borderopacity="1.0"
     inkscape:pageopacity="0.0"
     inkscape:pageshadow="2"
     inkscape:zoom="0.78339844"
     inkscape:cx="-117.77457"
     inkscape:cy="-110.1606"
     inkscape:document-units="mm"
     inkscape:current-layer="layer1"
     showgrid="false"
     inkscape:window-width="1366"
     inkscape:window-height="705"
     inkscape:window-x="-8"
     inkscape:window-y="-8"
     inkscape:window-maximized="1" />
  <metadata
     id="metadata2875">
    <rdf:RDF>
      <cc:Work
         rdf:about="">
        <dc:format>image/svg+xml</dc:format>
        <dc:type
           rdf:resource="http://purl.org/dc/dcmitype/StillImage" />
        <dc:title></dc:title>
      </cc:Work>
    </rdf:RDF>
  </metadata>
  <g
     inkscape:label="Layer 1"
     inkscape:groupmode="layer"
     id="layer1"
     transform="translate(-82.112114,-87.265707)">
    <path
       style="fill:none;stroke:#000000;stroke-width:0.26458332px;stroke-linecap:butt;stroke-linejoin:miter;stroke-opacity:1"
       d="m 88.369396,101.93925 c 0.23252,-0.63942 0.19597,-0.60089 0.47764,-1.16423 0.0259,-0.0519 0.0618,-0.0983 0.0895,-0.14926 0.032,-0.0586 0.0579,-0.12034 0.0896,-0.17911 0.038,-0.0706 0.0835,-0.13721 0.11941,-0.20896 0.0339,-0.0678 0.0536,-0.14225 0.0896,-0.20897 0.034,-0.0632 0.0838,-0.116813 0.11941,-0.179112 0.0442,-0.0773 0.0775,-0.160291 0.11941,-0.23882 0.0378,-0.0708 0.0817,-0.13818 0.11941,-0.20897 0.15225,-0.285471 0.0954,-0.202631 0.23882,-0.507481 0.0853,-0.181189 0.17911,-0.358219 0.26866,-0.537339 0.0995,-0.199011 0.19528,-0.39994 0.29852,-0.59704 0.11571,-0.220901 0.24288,-0.43566 0.35823,-0.65675 0.0618,-0.11836 0.11736,-0.23986 0.17911,-0.35822 0.0577,-0.11054 0.12144,-0.21783 0.17911,-0.328371 0.0618,-0.118369 0.11941,-0.23882 0.17912,-0.358229 0.11941,-0.238821 0.23881,-0.477631 0.35822,-0.71645 0.0597,-0.11941 0.11941,-0.23882 0.17911,-0.35822 0.0597,-0.11941 0.12349,-0.236871 0.17912,-0.35823 0.0539,-0.117591 0.0954,-0.240631 0.14926,-0.35823 0.0556,-0.121361 0.1194,-0.23881 0.17911,-0.358221 0.0597,-0.119409 0.11941,-0.238819 0.17911,-0.358219 0.0597,-0.11941 0.11553,-0.24084 0.17912,-0.35823 0.0658,-0.121551 0.1393,-0.238821 0.20896,-0.35822 0.0696,-0.119411 0.13709,-0.24015 0.20896,-0.358231 0.0675,-0.11082 0.14151,-0.21755 0.20897,-0.328369 0.0719,-0.118091 0.13709,-0.240141 0.20896,-0.35823 0.13492,-0.221651 0.28135,-0.436121 0.41793,-0.65674 0.30579,-0.493971 0.0498,-0.10649 0.38808,-0.6269 0.22604,-0.347761 0.14046,-0.20529 0.38808,-0.56719 0.0608,-0.0888 0.11704,-0.180731 0.17911,-0.268671 0.0574,-0.0813 0.11941,-0.159209 0.17911,-0.23881 0.0597,-0.0796 0.11695,-0.16112 0.17911,-0.23882 0.0573,-0.0716 0.11941,-0.13931 0.17912,-0.20896 0.11941,-0.13932 0.2397,-0.27787 0.35822,-0.41794 0.0502,-0.0593 0.0967,-0.12182 0.14926,-0.17911 0.1046,-0.11411 0.21892,-0.218909 0.32838,-0.328369 0.11914,-0.119151 0.16238,-0.17337 0.29852,-0.26867 0.0475,-0.0333 0.0995,-0.0597 0.14926,-0.0896 0.0497,-0.0298 0.0974,-0.0636 0.14926,-0.0896 0.0479,-0.024 0.10029,-0.0379 0.14926,-0.0597 0.0826,-0.0367 0.18018,-0.0997 0.26867,-0.1194 0.0388,-0.009 0.0799,0.005 0.11941,0 0.12189,-0.0152 0.0976,-0.0458 0.20896,-0.0299 0.0656,0.009 0.14517,0.0384 0.20897,0.0597 0.0299,0.01 0.0614,0.0158 0.0896,0.0299 0.0321,0.016 0.0597,0.0398 0.0896,0.0597 0.0299,0.0199 0.0642,0.0343 0.0896,0.0597 0.0254,0.0254 0.0398,0.0597 0.0597,0.0896 0.0437,0.0655 0.0942,0.13322 0.11941,0.20897 0.0579,0.17365 0.014,0.11 0.0298,0.26867 0.006,0.0602 0.0248,0.118789 0.0299,0.179109 0.005,0.0595 0,0.11941 0,0.17911 0,0.0597 0,0.11941 0,0.17912 0,0.0597 0,0.1194 0,0.17911 0,0.0696 0.005,0.13948 0,0.20896 -0.005,0.0702 -0.0206,0.13922 -0.0299,0.20897 -0.0521,0.391061 0.002,0.0885 -0.0896,0.477631 -0.0681,0.28933 -0.12012,0.581419 -0.20896,0.86571 -0.0657,0.21024 -0.13931,0.41793 -0.20897,0.6269 -0.0398,0.119399 -0.0796,0.23881 -0.1194,0.358219 -0.0398,0.119411 -0.0796,0.238821 -0.11941,0.35823 -0.0398,0.119401 -0.0811,0.238341 -0.11941,0.358221 -0.0413,0.12891 -0.0751,0.260179 -0.11941,0.38808 -0.0453,0.13097 -0.10392,0.257099 -0.14926,0.388069 -0.0443,0.127901 -0.0766,0.259691 -0.11941,0.38808 -0.0468,0.140341 -0.0979,0.279211 -0.14926,0.41793 -0.0481,0.12997 -0.10543,0.256601 -0.14926,0.38808 -0.0458,0.13745 -0.0707,0.28149 -0.11941,0.41793 -0.051,0.142731 -0.12369,0.27686 -0.17911,0.417931 -0.10818,0.27537 -0.1936,0.559229 -0.29852,0.83586 -0.057,0.1503 -0.11765,0.29924 -0.17911,0.44778 -0.058,0.14005 -0.12536,0.27622 -0.17912,0.41793 -0.0558,0.147099 -0.0935,0.30067 -0.14926,0.44778 -0.11616,0.306239 -0.25394,0.566489 -0.38808,0.86571 -0.12399,0.27661 -0.23511,0.558859 -0.35822,0.83586 -0.11573,0.26038 -0.23655,0.51849 -0.35823,0.77615 -0.10832,0.229412 -0.22597,0.454492 -0.32837,0.686602 -0.047,0.10656 -0.0735,0.22132 -0.11941,0.32837 -0.0789,0.18407 -0.19164,0.35249 -0.26866,0.53734 -0.0158,0.0379 -0.0137,0.0817 -0.0299,0.11941 -0.1736,0.40508 0.0362,-0.19825 -0.0896,0.17911 0.12936,-0.1791 0.25872,-0.3582 0.38809,-0.53729 0.01,-0.0299 0.0137,-0.0626 0.0298,-0.0896 0.029,-0.0483 0.0842,-0.0754 0.11941,-0.11941 0.0224,-0.028 0.0343,-0.0642 0.0597,-0.0896 0.0254,-0.0254 0.062,-0.0367 0.0896,-0.0597 0.0324,-0.027 0.0571,-0.0625 0.0896,-0.0896 0.0551,-0.0459 0.12073,-0.0777 0.17912,-0.11941 0.0405,-0.0289 0.0772,-0.0632 0.1194,-0.0896 0.0377,-0.0236 0.0796,-0.0398 0.11941,-0.0597 0.0398,-0.0199 0.0796,-0.0398 0.11941,-0.0597 0.16734,-0.0837 0.0781,-0.0432 0.26867,-0.11941 0.0497,-0.0199 0.0979,-0.0443 0.14926,-0.0597 0.0486,-0.0146 0.10066,-0.0153 0.14926,-0.0298 0.0513,-0.0154 0.0976,-0.0456 0.14926,-0.0597 0.0584,-0.0159 0.11956,-0.019 0.17911,-0.0298 0.0998,-0.0181 0.19902,-0.0398 0.29852,-0.0597 0.3687,-0.0737 -0.0918,0.0167 0.32838,-0.0597 0.0499,-0.009 0.0987,-0.0253 0.14926,-0.0298 0.0595,-0.005 0.11941,0 0.17911,0 0.10946,0 0.21892,0 0.32837,0 0.10946,0 0.21892,0 0.32838,0 0.0498,0 0.0997,-0.005 0.14926,0 0.2233,0.0203 0.13059,0.0236 0.32837,0.0896 0.0778,0.0259 0.16199,0.0309 0.23882,0.0597 0.0417,0.0156 0.0796,0.0398 0.1194,0.0597 0.0398,0.0199 0.0808,0.0376 0.11941,0.0597 0.0704,0.0402 0.1449,0.10349 0.20897,0.14926 0.0292,0.0208 0.0642,0.0343 0.0896,0.0597 0.0254,0.0254 0.0367,0.062 0.0597,0.0896 0.027,0.0324 0.065,0.0552 0.0896,0.0896 0.0707,0.099 0.0478,0.11152 0.0896,0.20896 0.0175,0.0409 0.0441,0.0777 0.0597,0.11941 0.0606,0.1617 0.009,0.0748 0.0299,0.23882 0.005,0.0407 0.0248,0.0787 0.0298,0.1194 0.005,0.0395 0,0.0796 0,0.11941 0,0.0398 0,0.0796 0,0.11941 0,0.0995 0,0.19902 0,0.29852 0,0.13931 0,0.27862 0,0.41793 0,0.01 0,0.0199 0,0.0299 0,0.01 -0.007,0.0228 0,0.0299 0.007,0.007 0.0228,0.007 0.0299,0 0.007,-0.007 -0.007,-0.0228 0,-0.0299 0.007,-0.007 0.0209,0.004 0.0299,0 0.0126,-0.006 0.0181,-0.022 0.0299,-0.0299 0.0185,-0.0123 0.0398,-0.0199 0.0597,-0.0299 0.0199,-0.0199 0.0372,-0.0428 0.0597,-0.0597 0.0178,-0.0134 0.0419,-0.0165 0.0597,-0.0299 0.0225,-0.0169 0.0356,-0.0452 0.0597,-0.0597 0.027,-0.0162 0.0614,-0.0158 0.0896,-0.0298 0.2998,-0.1499 -0.15739,0.0376 0.20896,-0.11941 0.0289,-0.0124 0.0606,-0.0175 0.0896,-0.0299 0.0818,-0.0351 0.155484,-0.0882 0.238824,-0.11941 0.0384,-0.0144 0.081,-0.0154 0.1194,-0.0299 0.0417,-0.0156 0.0772,-0.0456 0.11941,-0.0597 0.0481,-0.016 0.0997,-0.0188 0.14926,-0.0298 0.0801,-0.0178 0.15921,-0.0398 0.23882,-0.0597 0.0398,-0.01 0.0786,-0.0253 0.11941,-0.0299 0.0495,-0.005 0.0995,0 0.14926,0 0.0398,0 0.0796,0 0.11941,0 0.0398,0 0.0796,0 0.11941,0 0.0498,0 0.0998,-0.005 0.14926,0 0.0408,0.005 0.0796,0.0199 0.1194,0.0299 0.0398,0.01 0.0796,0.0199 0.11941,0.0299 0.0398,0.01 0.081,0.0154 0.11941,0.0299 0.12418,0.0466 0.22231,0.1332 0.32837,0.20896 0.0292,0.0209 0.062,0.0367 0.0896,0.0597 0.0324,0.027 0.0597,0.0597 0.0896,0.0896 0.0597,0.0597 0.12506,0.11424 0.17911,0.17911 0.023,0.0276 0.0367,0.062 0.0597,0.0896 0.027,0.0324 0.065,0.0552 0.0896,0.0896 6.8e-4,9.5e-4 0.11779,0.23598 0.11941,0.23882 0.0178,0.0311 0.0456,0.0566 0.0597,0.0896 0.0162,0.0377 0.0154,0.081 0.0298,0.11941 0.0156,0.0417 0.0456,0.0772 0.0597,0.11941 0.016,0.0481 0.0188,0.0997 0.0299,0.14926 0.0286,0.12858 0.075,0.25669 0.0896,0.38808 0.004,0.0396 -0.005,0.0799 0,0.11941 0.005,0.0407 0.0248,0.0787 0.0298,0.1194 0.005,0.0395 0,0.0796 0,0.11941 0,0.0398 0,0.0796 0,0.11941 0,0.16916 0,0.33833 0,0.50749 0,0.0696 0,0.13931 0,0.20896 0,0.0199 -0.006,0.0408 0,0.0597 0.004,0.0134 0.0236,0.0173 0.0299,0.0298 0.009,0.0178 -0.009,0.0419 0,0.0597 0.006,0.0126 0.0173,0.0236 0.0299,0.0298 0.008,0.004 0.1038,0 0.11941,0 0.07,0 -0.0141,0.007 0.0597,-0.0298 0.009,-0.004 0.0204,0.003 0.0299,0 0.16913,-0.0846 -0.0445,0.0111 0.11941,-0.0299 0.0216,-0.005 0.0381,-0.0245 0.0597,-0.0299 0.0193,-0.005 0.0398,0 0.0597,0 0.0697,0 0.13931,0 0.20897,0 0.0597,0 0.11941,0 0.17911,0 0.0298,0 0.0601,-0.005 0.0896,0 0.031,0.005 0.0593,0.0212 0.0895,0.0299 0.0395,0.0113 0.0817,0.0137 0.11941,0.0299 0.033,0.0141 0.0584,0.0419 0.0896,0.0597 0.0386,0.0221 0.0808,0.0376 0.11941,0.0597 0.0311,0.0178 0.0597,0.0398 0.0896,0.0597 0.0299,0.0199 0.062,0.0367 0.0896,0.0597 0.0324,0.027 0.0597,0.0597 0.0896,0.0896 0.0298,0.0299 0.065,0.0552 0.0896,0.0896 0.0259,0.0362 0.0361,0.0817 0.0597,0.11941 0.0264,0.0422 0.0632,0.0772 0.0896,0.11941 0.0236,0.0377 0.0381,0.0805 0.0597,0.11941 0.0282,0.0507 0.066,0.0962 0.0896,0.14926 0.0167,0.0375 0.0132,0.0819 0.0299,0.11941 0.0236,0.053 0.068,0.0954 0.0896,0.14926 0.0189,0.0471 0.0165,0.10031 0.0299,0.14926 0.0151,0.11799 0.0888,0.216 0.11941,0.32837 0.0159,0.0584 0.0199,0.11941 0.0299,0.17911 0.0315,0.18894 0.0604,0.3779 0.0896,0.56719 0.0828,0.53846 -0.0269,-0.21785 0.0597,0.38808 0.01,0.0696 0.0245,0.13881 0.0298,0.20896 0.005,0.0595 0,0.11941 0,0.17912 0,0.0796 0,0.15921 0,0.23881 0,0.0697 0,0.13931 0,0.20897 0,0.0796 0.005,0.15936 0,0.23881 -0.0144,0.23076 -0.0366,0.25252 -0.0896,0.47764 -0.021,0.0893 -0.0398,0.17911 -0.0597,0.26867 -0.0398,0.17911 -0.0796,0.35822 -0.11941,0.53733 -0.0199,0.0896 -0.0352,0.18028 -0.0597,0.26867 -0.0253,0.091 -0.0597,0.17912 -0.0896,0.26867 -0.0299,0.0896 -0.0597,0.17911 -0.0896,0.26867 -0.0299,0.0896 -0.0597,0.17911 -0.0896,0.26867 -0.0299,0.0896 -0.0554,0.18069 -0.0896,0.26867 -0.0939,0.24142 -0.13159,0.27962 -0.23882,0.50748 -0.0417,0.0887 -0.0756,0.18102 -0.11941,0.26867 -0.0743,0.14855 -0.1842,0.307 -0.26866,0.44778 -0.0413,0.0688 -0.0737,0.14301 -0.11941,0.20897 -0.0442,0.0639 -0.10188,0.11751 -0.14926,0.17911 -0.0522,0.0678 -0.0971,0.14112 -0.14926,0.20897 -0.0474,0.0616 -0.10005,0.11896 -0.14926,0.17911 -0.0404,0.0493 -0.0768,0.1019 -0.11941,0.14926 -0.10804,0.12004 -0.31116,0.29656 -0.41793,0.38808 -0.0484,0.0415 -0.0971,0.0829 -0.14926,0.1194 -0.0475,0.0333 -0.10173,0.0563 -0.14926,0.0896 -0.14116,0.0988 -0.14327,0.1384 -0.29852,0.20897 -0.0573,0.026 -0.12102,0.0355 -0.17912,0.0597 -0.0616,0.0257 -0.11681,0.0656 -0.17911,0.0896 -0.0676,0.026 -0.13931,0.0398 -0.20896,0.0597 -0.0697,0.0199 -0.13931,0.0398 -0.20897,0.0597 -0.0696,0.0199 -0.13813,0.0445 -0.20896,0.0597 -0.0688,0.0147 -0.13997,0.0161 -0.20897,0.0299 -0.0805,0.0161 -0.15835,0.0436 -0.23881,0.0597 -0.138,0.0276 -0.27885,0.0383 -0.41793,0.0597 -0.0598,0.009 -0.11889,0.0238 -0.17912,0.0299 -0.0711,0.007 -0.19286,0 -0.26867,0"
       id="path1485"
       inkscape:connector-curvature="0" />
    <path
       style="fill:none;stroke:#000000;stroke-width:0.26458332px;stroke-linecap:butt;stroke-linejoin:miter;stroke-opacity:1"
       d="m 85.095006,114.9931 c -0.16887,-0.3096 -0.36189,-0.60719 -0.50661,-0.92878 -0.61071,-1.35713 -0.11099,-0.35589 -0.29552,-0.971 -0.0435,-0.14517 -0.12899,-0.27595 -0.16887,-0.42217 -0.0225,-0.0826 -0.0197,-0.17072 -0.0422,-0.2533 -0.0199,-0.0731 -0.0585,-0.13987 -0.0844,-0.21109 -0.18557,-0.51031 -0.004,-0.0137 -0.12665,-0.46439 -0.0213,-0.16687 -0.12553,-0.30548 -0.16887,-0.46439 -9e-5,-2.6e-4 -0.084,-0.5044 -0.0844,-0.50661 -0.0128,-0.0706 -0.0357,-0.13962 -0.0422,-0.21108 -0.008,-0.0841 0,-0.16887 0,-0.2533 0,-0.1548 0,-0.3096 0,-0.4644 0,-0.0844 0,-0.16886 0,-0.2533 0,-0.0844 -0.007,-0.16916 0,-0.2533 0.007,-0.0853 0.0292,-0.1687 0.0422,-0.25331 0.0151,-0.0983 0.0199,-0.19856 0.0422,-0.29552 0.02,-0.0867 0.0583,-0.16823 0.0844,-0.2533 0.0301,-0.0979 0.0543,-0.1976 0.0844,-0.29552 0.0262,-0.0851 0.0583,-0.16824 0.0844,-0.2533 0.0301,-0.0979 0.0543,-0.1976 0.0844,-0.29552 0.0262,-0.0851 0.0583,-0.16824 0.0844,-0.25331 0.0301,-0.0979 0.05,-0.19904 0.0844,-0.29552 0.036,-0.10093 0.0906,-0.19459 0.12665,-0.29552 0.056,-0.15679 0.12791,-0.47965 0.16887,-0.63326 0.0264,-0.099 0.0643,-0.19506 0.0844,-0.29552 0.0222,-0.11125 0.02,-0.22648 0.0422,-0.33774 0.0201,-0.10046 0.0643,-0.19506 0.0844,-0.29552 0.0222,-0.11125 0.02,-0.22648 0.0422,-0.33773 0.0201,-0.10046 0.063,-0.19535 0.0844,-0.29553 0.0811,-0.37843 0.004,-0.2303 0.0844,-0.63325 0.0201,-0.10046 0.0643,-0.19506 0.0844,-0.29552 0.0223,-0.11126 0.0272,-0.22528 0.0422,-0.33774 0.0166,-0.1249 0.0773,-0.51939 0.0844,-0.63326 0.007,-0.11236 -0.007,-0.22541 0,-0.33774 0.007,-0.0993 0.0291,-0.19689 0.0422,-0.29552 0.015,-0.11246 0.0281,-0.22516 0.0422,-0.33774 0.0141,-0.11257 0.0351,-0.2245 0.0422,-0.33774 0.007,-0.11236 -0.007,-0.22537 0,-0.33773 0.007,-0.11324 0.0281,-0.22516 0.0422,-0.33774 0.0141,-0.11258 0.0281,-0.22516 0.0422,-0.33774 0.06,-0.479862 0.0245,-0.19561 0.0844,-0.675483 0.0141,-0.112569 0.0213,-0.226219 0.0422,-0.33773 0.0214,-0.114059 0.0631,-0.223679 0.0844,-0.337739 0.0403,-0.21491 0.0387,-0.41975 0.0844,-0.633261 0.0429,-0.200349 0.1228,-0.391389 0.16887,-0.59104 0.069,-0.299069 0.007,-0.237169 0.12665,-0.548819 2.65e-4,-0.001 0.25218,-0.50414 0.25331,-0.506611 0.0314,-0.069 0.0454,-0.1461 0.0844,-0.211089 2.1e-4,-2.6e-4 0.33529,-0.41902 0.33774,-0.42217 0.0432,-0.0555 0.0769,-0.11911 0.12665,-0.16887 0.0498,-0.0498 0.11258,-0.0844 0.16887,-0.12665 0.0563,-0.0422 0.1092,-0.0894 0.16887,-0.12665 0.0534,-0.0334 0.11423,-0.0532 0.16887,-0.0844 0.13411,-0.0766 0.10445,-0.0969 0.2533,-0.12665 0.0193,-0.004 0.24144,-0.006 0.25331,0 0.0827,0.0413 0.0856,0.10051 0.12665,0.16887 0.0261,0.0435 0.0617,0.0813 0.0844,0.12665 0.0199,0.0398 0.0247,0.0857 0.0422,0.12666 0.0248,0.0578 0.0623,0.10994 0.0844,0.16886 0.0204,0.0543 0.0219,0.11454 0.0422,0.16887 0.0221,0.0589 0.0645,0.10917 0.0844,0.16887 0.0227,0.0681 0.0233,0.14186 0.0422,0.21109 0.0234,0.0859 0.0644,0.16658 0.0844,0.2533 0.0224,0.097 0.0271,0.19717 0.0422,0.29552 0.013,0.0846 0.0361,0.16792 0.0422,0.25331 0.008,0.11229 -0.007,0.225399 0,0.33773 0.007,0.0993 0.0281,0.197019 0.0422,0.29552 0.0141,0.11258 0.0351,0.224509 0.0422,0.337739 0.014,0.224721 -0.014,0.45076 0,0.675481 0.007,0.11323 0.0356,0.22448 0.0422,0.337739 0.007,0.126431 0,0.253301 0,0.379951 0,0.239232 0,0.478462 0,0.717692 0,0.11258 -0.007,0.22538 0,0.33774 0.007,0.11324 0.0347,0.22454 0.0422,0.33774 0.007,0.0983 -0.007,0.19726 0,0.29552 0.007,0.0993 0.0346,0.19631 0.0422,0.29552 0.006,0.0842 -0.008,0.16922 0,0.2533 0.0505,0.55547 0.0422,-0.0389 0.0422,0.33774 0,0.0282 0,0.0563 0,0.0844 0,0.0141 0.006,0.0549 0,0.0422 -0.0962,-0.19729 -0.18123,-0.39984 -0.27185,-0.59976"
       id="path1497"
       inkscape:connector-curvature="0" />
    <path
       style="fill:none;stroke:#000000;stroke-width:0.26458332px;stroke-linecap:butt;stroke-linejoin:miter;stroke-opacity:1"
       d="m 105.20598,110.32769 c -0.62899,1.31517 -0.0395,0.0362 -0.62689,1.46275 -0.0339,0.0823 -0.0796,0.15921 -0.11941,0.23882 -0.0896,0.17911 -0.17216,0.36187 -0.26867,0.53734 -0.24564,0.44662 -0.10834,0.15746 -0.38808,0.59704 -0.72538,1.13989 0.31118,-0.40441 -0.44778,0.6866 -0.38012,0.54642 -0.0979,0.17742 -0.50748,0.7463 -0.0853,0.11845 -0.48525,0.64485 -0.56719,0.7463 -0.19489,0.24129 -0.4415,0.5217 -0.65675,0.74631 -0.11684,0.12192 -0.23882,0.23881 -0.35822,0.35822 -0.11941,0.11941 -0.23395,0.24389 -0.35823,0.35823 -0.12471,0.11473 -0.25872,0.21891 -0.38808,0.32837 -0.45455,0.38462 -0.30973,0.27241 -0.776154,0.62689 -0.62553,0.47541 -0.0874,0.0699 -0.71645,0.50749 -0.11111,0.0773 -0.21824,0.16015 -0.32837,0.23881 -0.1145,0.0818 -0.43867,0.30899 -0.56719,0.38808 -0.0379,0.0233 -0.0808,0.0376 -0.11941,0.0597 -0.16204,0.0926 -0.0149,0.0348 -0.17911,0.0896"
       id="path1511"
       inkscape:connector-curvature="0" />
    <path
       style="fill:none;stroke:#000000;stroke-width:0.26458332px;stroke-linecap:butt;stroke-linejoin:miter;stroke-opacity:1"
       d="m 83.682616,108.17834 c -0.0896,0.21892 -0.18161,0.43682 -0.26867,0.65675 -0.20976,0.28576 -0.23614,0.63786 -0.35822,0.95527 -0.0272,0.0707 -0.0641,0.13759 -0.0896,0.20896 -0.0244,0.0682 -0.0353,0.14074 -0.0597,0.20896 -0.0255,0.0714 -0.0614,0.13861 -0.0896,0.20897 -0.0946,0.23656 -0.1792,0.47788 -0.26867,0.71645 -0.0299,0.0796 -0.0656,0.15725 -0.0896,0.23882 -0.0259,0.088 -0.0387,0.17936 -0.0597,0.26866 -0.0188,0.0799 -0.0446,0.15817 -0.0597,0.23882 -0.0119,0.0636 -0.0537,0.45634 -0.0597,0.50749 -0.009,0.0797 -0.0251,0.15873 -0.0299,0.23881 -0.0146,0.24784 0.002,0.27033 0.0299,0.50749 0.0105,0.0895 0.015,0.17979 0.0299,0.26867 0.01,0.0588 0.098,0.439 0.11941,0.50748 0.0253,0.0812 0.0613,0.15865 0.0895,0.23882 0.0571,0.16179 0.10985,0.34918 0.17911,0.50749 0.0357,0.0815 0.0796,0.15921 0.11941,0.23881 0.16139,0.32278 0.0722,0.16335 0.26867,0.47764 0.0497,0.0796 0.0995,0.15921 0.14926,0.23881 0.0498,0.0796 0.0937,0.16312 0.14926,0.23882 0.0924,0.12596 0.27621,0.31352 0.38808,0.41793 0.0773,0.0722 0.16149,0.13679 0.23882,0.20896 0.072,0.0672 0.13452,0.14445 0.20896,0.20897 0.0752,0.0652 0.15977,0.11866 0.23882,0.17911 0.0901,0.0689 0.17669,0.14254 0.26867,0.20897 0.0872,0.063 0.17911,0.1194 0.26866,0.17911 0.0896,0.0597 0.17683,0.12298 0.26867,0.17911 0.0874,0.0534 0.18001,0.0979 0.26867,0.14926 0.10043,0.0581 0.19573,0.12527 0.29852,0.17911 0.25421,0.13316 0.36981,0.15849 0.6269,0.26867 0.11051,0.0474 0.21709,0.10374 0.32837,0.14926 0.1078,0.0441 0.21892,0.0796 0.32837,0.11941 0.10946,0.0398 0.21892,0.0796 0.32838,0.11941 0.10945,0.0398 0.21891,0.0796 0.32837,0.11941 0.10946,0.0398 0.21695,0.0855 0.32837,0.11941 0.11775,0.0358 0.24048,0.0537 0.35823,0.0895 0.11142,0.0339 0.21695,0.0855 0.32837,0.11941 0.11775,0.0358 0.23913,0.0585 0.35823,0.0896 0.33836,0.0883 0.67304,0.19433 1.01497,0.26867 0.15303,0.0333 0.53902,0.0937 0.6866,0.1194 0.1096,0.019 0.21814,0.0447 0.32837,0.0597 0.1089,0.0148 0.21939,0.0156 0.32837,0.0299 0.39137,0.051 0.30601,0.073 0.6866,0.0896 0.11929,0.005 0.23892,-0.005 0.35822,0 0.11972,0.005 0.23851,0.0249 0.35823,0.0299 0.1193,0.005 0.23882,0 0.35823,0 0.1194,0 0.23881,0 0.35822,0 0.12936,0 0.25882,0.005 0.38808,0 0.11972,-0.005 0.23878,-0.0203 0.35822,-0.0299 0.54018,-0.0432 0.23805,-0.007 0.77616,-0.0896 0.12935,-0.0199 0.25872,-0.0398 0.38808,-0.0597 0.12935,-0.0199 0.25973,-0.034 0.38807,-0.0597 0.34277,-0.0685 0.40196,-0.11255 0.7463,-0.20896 0.41535,-0.1163 0.28829,-0.0579 0.6866,-0.17912 0.33468,-0.10185 0.66062,-0.22842 0.98512,-0.35822 0.0995,-0.0398 0.20079,-0.0754 0.29852,-0.11941 0.10146,-0.0456 0.19798,-0.10163 0.29852,-0.14926 0.0886,-0.0419 0.183,-0.0718 0.26867,-0.11941 0.0941,-0.0523 0.17831,-0.12064 0.26867,-0.17911 0.29564,-0.1913 0.18804,-0.0946 0.44778,-0.32837 0.06,-0.054 0.112804,-0.10619 0.149264,-0.17912 0.0141,-0.0281 0.0199,-0.0597 0.0299,-0.0896"
       id="path1521"
       inkscape:connector-curvature="0" />
  </g>
</svg>
