<?xml version="1.0" encoding="UTF-8" standalone="no"?>
<!-- Created with Inkscape (http://www.inkscape.org/) -->

<svg
   xmlns:dc="http://purl.org/dc/elements/1.1/"
   xmlns:cc="http://creativecommons.org/ns#"
   xmlns:rdf="http://www.w3.org/1999/02/22-rdf-syntax-ns#"
   xmlns:svg="http://www.w3.org/2000/svg"
   xmlns="http://www.w3.org/2000/svg"
   xmlns:sodipodi="http://sodipodi.sourceforge.net/DTD/sodipodi-0.dtd"
   xmlns:inkscape="http://www.inkscape.org/namespaces/inkscape"
   width="16.439169mm"
   height="15.481131mm"
   viewBox="0 0 16.439169 15.481131"
   version="1.1"
   id="svg2305"
   inkscape:version="0.92.4 (5da689c313, 2019-01-14)"
   sodipodi:docname="hand-pointing-front.svg">
  <defs
     id="defs2299" />
  <sodipodi:namedview
     id="base"
     pagecolor="#ffffff"
     bordercolor="#666666"
     borderopacity="1.0"
     inkscape:pageopacity="0.0"
     inkscape:pageshadow="2"
     inkscape:zoom="4.4315708"
     inkscape:cx="40.174064"
     inkscape:cy="15.962007"
     inkscape:document-units="mm"
     inkscape:current-layer="layer1"
     showgrid="false"
     inkscape:window-width="1366"
     inkscape:window-height="705"
     inkscape:window-x="-8"
     inkscape:window-y="-8"
     inkscape:window-maximized="1" />
  <metadata
     id="metadata2302">
    <rdf:RDF>
      <cc:Work
         rdf:about="">
        <dc:format>image/svg+xml</dc:format>
        <dc:type
           rdf:resource="http://purl.org/dc/dcmitype/StillImage" />
        <dc:title></dc:title>
      </cc:Work>
    </rdf:RDF>
  </metadata>
  <g
     inkscape:label="Layer 1"
     inkscape:groupmode="layer"
     id="layer1"
     transform="translate(-28.593846,-89.994079)">
    <path
       style="fill:none;stroke:#000000;stroke-width:0.26458332px;stroke-linecap:butt;stroke-linejoin:miter;stroke-opacity:1"
       d="m 28.715168,102.63939 c 0.0995,-0.22887 0.17902,-0.46751 0.29852,-0.6866 0.061,-0.11187 0.16475,-0.19483 0.23882,-0.29852 0.0259,-0.0362 0.0361,-0.0817 0.0597,-0.11941 0.0264,-0.0422 0.062,-0.078 0.0896,-0.11941 0.0644,-0.0966 0.11941,-0.19901 0.17911,-0.29852 0.0597,-0.0995 0.11941,-0.19901 0.17911,-0.29852 0.0299,-0.0498 0.0618,-0.0983 0.0896,-0.14926 0.032,-0.0586 0.0576,-0.12051 0.0896,-0.17911 0.0278,-0.0509 0.0618,-0.0983 0.0896,-0.14926 0.032,-0.0586 0.0576,-0.12052 0.0896,-0.17912 0.0278,-0.0509 0.0636,-0.0974 0.0896,-0.14926 0.024,-0.0479 0.0398,-0.0995 0.0597,-0.149258 0.0398,-0.0995 0.0759,-0.20058 0.11941,-0.29852 0.0181,-0.0407 0.0456,-0.0772 0.0597,-0.11941 0.016,-0.0481 0.0138,-0.10112 0.0299,-0.14926 0.0141,-0.0422 0.0441,-0.0777 0.0597,-0.11941 0.0606,-0.16169 0.009,-0.0748 0.0299,-0.23881 0.0102,-0.0814 0.0481,-0.15759 0.0597,-0.23882 0.004,-0.0296 -0.004,-0.06 0,-0.0896 0.006,-0.0406 0.0248,-0.0787 0.0299,-0.1194 0.009,-0.0691 -0.01,-0.14001 0,-0.20897 0.006,-0.0406 0.024,-0.0788 0.0298,-0.11941 0.004,-0.0296 0,-0.0597 0,-0.0896 0,-0.0697 0,-0.13931 0,-0.20897 0,-0.0298 -0.004,-0.06 0,-0.0896 0.006,-0.0406 0.0248,-0.0787 0.0299,-0.11941 0.01,-0.079 -0.009,-0.1597 0,-0.23882 0.0112,-0.10086 0.0416,-0.19868 0.0597,-0.29852 0.0199,-0.1094 0.0398,-0.21897 0.0597,-0.32837 0.009,-0.048 0.0427,-0.27165 0.0597,-0.32838 0.0154,-0.0513 0.0456,-0.0976 0.0597,-0.14926 0.0301,-0.11027 0.0296,-0.2181 0.0597,-0.32837 0.0474,-0.17374 0.13544,-0.33277 0.17912,-0.50748 0.13186,-0.52747 -0.0946,0.21048 0.0896,-0.38808 0.037,-0.1203 0.0796,-0.23882 0.11941,-0.35823 0.0199,-0.0597 0.0455,-0.11779 0.0597,-0.17911 0.0158,-0.0686 0.0128,-0.1407 0.0299,-0.20896 0.013,-0.052 0.0414,-0.0989 0.0597,-0.14926 0.043,-0.11829 0.0796,-0.23882 0.11941,-0.35823 0.0199,-0.0597 0.0431,-0.1184 0.0597,-0.17911 0.0869,-0.31868 -0.0417,0.0325 0.0896,-0.32837 7.94e-4,-0.002 0.11926,-0.297988 0.11941,-0.298526 0.0159,-0.05839 0.0125,-0.121136 0.0299,-0.179112 0.0128,-0.04262 0.0456,-0.07719 0.0597,-0.119409 0.016,-0.04814 0.0153,-0.100661 0.0299,-0.149259 0.0154,-0.05133 0.0428,-0.09843 0.0597,-0.149262 0.013,-0.03892 0.0154,-0.08099 0.0298,-0.119407 0.18593,-0.495813 -0.0538,0.195212 0.11941,-0.208965 0.0162,-0.03771 0.0137,-0.0817 0.0298,-0.119409 0.0141,-0.03298 0.0437,-0.05747 0.0597,-0.08956 0.0141,-0.02814 0.0136,-0.06257 0.0298,-0.08956 0.1666,-0.277661 -0.0598,0.209217 0.11941,-0.149259 0.0141,-0.02815 0.0136,-0.06257 0.0298,-0.08956 0.029,-0.04827 0.0856,-0.07438 0.11941,-0.119409 0.0134,-0.01781 0.0141,-0.04397 0.0298,-0.0597 0.0157,-0.01574 0.044,-0.01413 0.0597,-0.02985 0.0157,-0.01574 0.0141,-0.04397 0.0299,-0.0597 0.0157,-0.01574 0.0412,-0.01752 0.0597,-0.02985 0.0546,-0.03641 0.003,-0.03806 0.0896,-0.0597 0.0193,-0.0048 0.0404,0.0048 0.0597,0 0.0216,-0.0054 0.0381,-0.02445 0.0597,-0.02985 0.0193,-0.0048 0.0398,0 0.0597,0 0.0796,0 0.15921,0 0.23882,0 0.0298,0 0.0597,0 0.0896,0 0.0299,0 0.0601,-0.0049 0.0896,0 0.031,0.0052 0.0597,0.0199 0.0896,0.02985 0.0299,0.0099 0.0597,0.0199 0.0896,0.02985 0.0299,0.0099 0.0593,0.02122 0.0896,0.02985 0.0394,0.01127 0.081,0.01545 0.11941,0.02985 0.0417,0.01564 0.0796,0.0398 0.11941,0.0597 0.0796,0.0398 0.16154,0.07525 0.23881,0.119409 0.14736,0.0842 0.0381,0.04247 0.20897,0.149259 0.0755,0.04717 0.16334,0.07224 0.23881,0.119409 0.0422,0.02638 0.0772,0.06319 0.11941,0.08956 0.0377,0.02357 0.0817,0.03612 0.11941,0.0597 0.0422,0.02638 0.0796,0.0597 0.11941,0.08956 0.0796,0.05971 0.15921,0.119409 0.23881,0.179112 0.0398,0.02985 0.078,0.06196 0.11941,0.08956 0.13731,0.09154 0.14968,0.07499 0.26867,0.179113 0.0424,0.03707 0.0796,0.07961 0.11941,0.119409 0.0796,0.07961 0.15921,0.15921 0.23882,0.238818 0.0697,0.06965 0.14409,0.134829 0.20896,0.208962 0.0328,0.03744 0.0597,0.07961 0.0896,0.11941 0.0298,0.0398 0.0632,0.07722 0.0895,0.119409 0.0472,0.07547 0.0753,0.161537 0.11941,0.238817 0.0178,0.0311 0.0456,0.0566 0.0597,0.0896 0.0162,0.0377 0.0186,0.08 0.0299,0.11941 7.94e-4,0.003 0.0596,0.17843 0.0597,0.17911 0.006,0.0394 0,0.0796 0,0.11941 0,0.0299 0,0.0597 0,0.0896 0,0.0453 0.007,0.19874 0,0.23881 -0.0122,0.0735 -0.0567,0.14328 -0.0896,0.20897 -0.0199,0.0398 -0.035,0.0824 -0.0597,0.11941 -0.008,0.0117 -0.0199,0.0199 -0.0299,0.0298 -0.0199,0.0199 -0.0372,0.0428 -0.0597,0.0597 -0.0178,0.0134 -0.0398,0.0199 -0.0597,0.0298 -0.0199,0.01 -0.0398,0.0199 -0.0597,0.0299 -0.0879,0.0439 -0.0386,0.0228 -0.14926,0.0597 -0.0298,0.01 -0.0585,0.0247 -0.0896,0.0299 -0.0294,0.005 -0.0601,-0.005 -0.0896,0 -0.031,0.005 -0.0585,0.0247 -0.0896,0.0299 -0.0294,0.005 -0.0597,0 -0.0896,0 -0.0398,0 -0.0796,0 -0.11941,0 -0.0299,0 -0.0597,0 -0.0896,0 -0.0398,0 -0.08,0.006 -0.11941,0 -0.0311,-0.004 -0.0593,-0.0212 -0.0896,-0.0299 -0.26239,-0.075 0.006,0.0119 -0.20896,-0.0597 -0.0597,-0.0199 -0.11941,-0.0398 -0.17911,-0.0597 -0.0299,-0.01 -0.0626,-0.0136 -0.0896,-0.0298 -0.0241,-0.0145 -0.0356,-0.0452 -0.0597,-0.0597 -0.0975,-0.0585 -0.0816,-10e-4 -0.179109,-0.0597 -0.0241,-0.0145 -0.0356,-0.0452 -0.0597,-0.0597 -0.027,-0.0162 -0.0626,-0.0137 -0.0896,-0.0299 -0.0241,-0.0145 -0.0356,-0.0452 -0.0597,-0.0597 -0.027,-0.0162 -0.0626,-0.0136 -0.0896,-0.0299 -0.0241,-0.0145 -0.0398,-0.0398 -0.0597,-0.0597 -0.0199,-0.0199 -0.0398,-0.0398 -0.0597,-0.0597 -0.01,-0.01 -0.0181,-0.022 -0.0298,-0.0299 -0.0185,-0.0123 -0.0412,-0.0175 -0.0597,-0.0298 -0.0411,-0.0274 -0.0307,-0.046 -0.0597,-0.0896 -0.008,-0.0117 -0.0236,-0.0173 -0.0298,-0.0298 -0.004,-0.009 0,-0.0199 0,-0.0298 0,-0.01 0,-0.0199 0,-0.0298"
       id="path1463"
       inkscape:connector-curvature="0" />
    <path
       style="fill:none;stroke:#000000;stroke-width:0.26458332px;stroke-linecap:butt;stroke-linejoin:miter;stroke-opacity:1"
       d="m 36.058788,92.788201 c 2.0238,-0.758928 0.16252,-0.03243 0.89556,-0.358227 0.43467,-0.193183 0.47272,-0.207 0.77615,-0.328372 0.0498,-0.0199 0.0989,-0.04139 0.14926,-0.0597 0.35736,-0.12995 7.94e-4,-2.09e-4 0.35823,-0.08956 0.061,-0.01527 0.11941,-0.0398 0.17911,-0.0597 0.52266,-0.174218 -0.12855,0.04675 0.32837,-0.11941 0.0591,-0.02151 0.12102,-0.0355 0.179121,-0.0597 0.0616,-0.02566 0.11749,-0.06388 0.179109,-0.08956 0.0581,-0.02421 0.11997,-0.0382 0.17911,-0.0597 0.0504,-0.01831 0.0989,-0.04139 0.149261,-0.05971 0.0591,-0.02151 0.121019,-0.0355 0.17912,-0.0597 0.0616,-0.02566 0.116809,-0.06559 0.17911,-0.08956 0.0676,-0.02601 0.141349,-0.0337 0.20896,-0.0597 0.0623,-0.02397 0.11681,-0.0656 0.17912,-0.08956 0.0676,-0.02601 0.14074,-0.03534 0.20896,-0.05971 0.0714,-0.02548 0.1376,-0.06407 0.208959,-0.08956 0.0682,-0.02437 0.139731,-0.0384 0.208971,-0.0597 0.120299,-0.03701 0.23882,-0.07961 0.358219,-0.119409 0.119411,-0.0398 0.23994,-0.07639 0.358231,-0.119409 0.456919,-0.166153 -0.19428,0.05481 0.32837,-0.119407 0.0597,-0.0199 0.11806,-0.04444 0.179109,-0.05971 0.0587,-0.01468 0.120141,-0.01625 0.17912,-0.02985 0.73576,-0.169794 -0.26485,0.04382 0.38807,-0.119409 0.0587,-0.01468 0.120401,-0.01516 0.17912,-0.02985 0.061,-0.01527 0.118051,-0.04444 0.179111,-0.0597 0.0587,-0.01469 0.11956,-0.01902 0.17911,-0.02985 0.0499,-0.0091 0.0995,-0.0199 0.14926,-0.02985 0.0995,-0.0199 0.19946,-0.03769 0.29852,-0.0597 0.0882,-0.01961 0.17864,-0.0497 0.268669,-0.0597 0.0396,-0.0044 0.0799,0.0049 0.119411,0 0.0407,-0.0051 0.0787,-0.02477 0.11941,-0.02985 0.0395,-0.0049 0.0796,0 0.11941,0 0.0796,0 0.15921,0 0.23881,0 0.0796,0 0.15922,0 0.238819,0 0.0299,0 0.0606,-0.0072 0.0896,0 0.0137,0.0034 0.0199,0.0199 0.0299,0.02985 0.01,0.0099 0.022,0.01815 0.0298,0.02985 0.0123,0.01852 0.0175,0.04119 0.0299,0.05971 0.008,0.01169 0.0254,0.01651 0.0299,0.02985 0.006,0.01889 0,0.0398 0,0.05971 0,0.0199 0,0.0398 0,0.0597 0,0.04317 0.006,0.177443 0,0.208965 -0.004,0.02183 -0.0216,0.03905 -0.0299,0.0597 -0.0117,0.02922 -0.0137,0.06257 -0.0299,0.08956 -0.0145,0.02413 -0.0421,0.03773 -0.0597,0.05971 -0.0448,0.05603 -0.0735,0.123986 -0.11941,0.179112 -0.027,0.03243 -0.0597,0.0597 -0.0896,0.08956 -0.0696,0.06965 -0.13483,0.144097 -0.20896,0.208965 -0.0375,0.03276 -0.0796,0.0597 -0.119411,0.08956 -0.0796,0.0597 -0.159209,0.119406 -0.238819,0.179112 -0.0796,0.0597 -0.15602,0.123915 -0.23881,0.179112 -0.0483,0.03218 -0.10099,0.05737 -0.149261,0.08956 -0.0414,0.0276 -0.078,0.06196 -0.119409,0.08956 -0.0483,0.03218 -0.0995,0.0597 -0.14926,0.08956 -0.149261,0.08956 -0.29852,0.179112 -0.44778,0.268668 -0.19876,0.119256 -0.4015,0.233789 -0.59705,0.358225 -0.14677,0.0934 -0.182761,0.129542 -0.328371,0.208965 -0.0586,0.03196 -0.119409,0.0597 -0.17911,0.08956 -0.119409,0.0597 -0.23882,0.119409 -0.358229,0.179113 -0.0597,0.02985 -0.121451,0.05592 -0.17911,0.08956 -0.062,0.03616 -0.115931,0.08539 -0.17911,0.119407 -5.3e-4,2.6e-4 -0.41633,0.17838 -0.41793,0.17911 -0.121221,0.0559 -0.23499,0.12777 -0.35823,0.17912 -0.0581,0.0242 -0.11997,0.0382 -0.179111,0.0597 -0.305499,0.11109 -0.006,0.007 -0.268669,0.11941 -0.0289,0.0124 -0.0603,0.0182 -0.0896,0.0299 -0.0857,0.0343 -0.0298,0.0298 -0.0896,0.0298 0.433841,0.24935 0.56549,-0.27246 0.8658,-0.35827 0.0287,-0.008 0.0601,0.005 0.0896,0 0.0834,-0.0139 0.185249,-0.0756 0.26867,-0.0896 0.0294,-0.005 0.0603,0.006 0.0895,0 0.0218,-0.004 0.0379,-0.0255 0.0597,-0.0298 0.0585,-0.0117 0.120221,0.01 0.17911,0 0.031,-0.005 0.0585,-0.0247 0.0896,-0.0299 0.0294,-0.005 0.0597,0 0.0896,0 0.0896,0 0.17912,0 0.268669,0 0.0697,0 0.13931,0 0.20897,0 0.0398,0 0.0799,-0.005 0.119401,0 0.0814,0.0102 0.15872,0.0419 0.23882,0.0597 0.0495,0.011 0.0997,0.0189 0.14926,0.0298 0.0801,0.0178 0.15921,0.0398 0.23882,0.0597 0.0398,0.01 0.081,0.0154 0.11941,0.0298 0.13121,0.0492 0.0987,0.0564 0.208959,0.11941 0.0929,0.0531 0.129621,0.0533 0.208971,0.11941 0.0324,0.027 0.0597,0.0597 0.0896,0.0896 0.0814,0.0814 0.11529,0.10684 0.17912,0.20896 0.0236,0.0377 0.0398,0.0796 0.0597,0.11941 0.0837,0.16734 0.0432,0.0781 0.11941,0.26867 0.0624,0.156 0.13824,0.31416 0.17911,0.47763 0.0147,0.0587 0.0139,0.12072 0.0299,0.17912 0.0141,0.0517 0.0456,0.0976 0.0597,0.14926 0.0159,0.0584 0.0199,0.1194 0.0298,0.17911 0.0745,0.44678 -0.0171,-0.11128 0.0597,0.38808 0.0133,0.0867 0.0539,0.30728 0.0597,0.38807 0.005,0.0695 0,0.13931 0,0.20897 0,0.0696 0,0.13931 0,0.20896 0,0.0796 0,0.15921 0,0.23882 0,0.0696 0.005,0.13946 0,0.20896 -0.005,0.08 -0.0245,0.15877 -0.0299,0.23882 -0.005,0.0695 0,0.13931 0,0.20897 0,0.14926 0,0.29852 0,0.44778 0,0.33832 0,0.67664 0,1.01497 0,0.0597 0,0.11941 0,0.17911 0,0.0597 0.005,0.11965 0,0.17911 -0.005,0.0505 -0.0199,0.0995 -0.0298,0.14926 -0.01,0.0498 -0.0153,0.10066 -0.0299,0.14926 -0.0154,0.0513 -0.0428,0.0984 -0.0597,0.14926 -0.013,0.0389 -0.0132,0.0819 -0.0299,0.11941 -0.0227,0.0512 -0.13398,0.223548 -0.17911,0.268668 -0.0352,0.0352 -0.0801,0.059 -0.119411,0.0896 -0.003,0.002 -0.29825,0.23866 -0.298519,0.23881 -0.0655,0.0382 -0.13931,0.0597 -0.20896,0.0896 -0.0697,0.0298 -0.1376,0.0641 -0.20897,0.0896 -0.15172,0.0542 -0.32245,0.0829 -0.47763,0.11941 -0.13084,0.0308 -0.37895,0.0991 -0.50749,0.1194 -0.0988,0.0156 -0.19974,0.0143 -0.29852,0.0299 -0.0906,0.0143 -0.17749,0.0496 -0.268671,0.0597 -0.089,0.01 -0.179229,-0.005 -0.26866,0 -0.0999,0.005 -0.198659,0.0246 -0.298529,0.0298 -0.0894,0.005 -0.17911,0 -0.268661,0 -0.0896,0 -0.17912,0 -0.268669,0 -0.248771,0 -0.497541,0 -0.746311,0 -0.0697,0 -0.139479,0.005 -0.20896,0 -0.0702,-0.005 -0.13942,-0.0191 -0.20896,-0.0298 -0.0388,-0.006 -0.27935,-0.045 -0.328379,-0.0597 -0.0513,-0.0154 -0.100291,-0.0379 -0.149261,-0.0597 -0.0421,-0.0187 -0.17054,-0.081 -0.20896,-0.11941 -0.0413,-0.0413 -0.0798,-0.12084 -0.0896,-0.17911 -0.005,-0.0294 0,-0.0597 0,-0.0896 0,-0.0398 -0.006,-0.08 0,-0.1194 0.007,-0.0487 0.0681,-0.17887 0.0896,-0.20897 0.0245,-0.0344 0.0597,-0.0597 0.0896,-0.0896 0.0796,-0.0796 0.15468,-0.164028 0.238821,-0.238818 0.0476,-0.0423 0.1019,-0.0768 0.149259,-0.11941 0.0523,-0.0471 0.097,-0.10219 0.149261,-0.14926 0.0474,-0.0426 0.1,-0.0791 0.14926,-0.11941 0.25766,-0.21081 0.0928,-0.0917 0.35823,-0.26867 0.119409,-0.0796 0.23881,-0.15921 0.358219,-0.23881 0.0597,-0.0398 0.121081,-0.0772 0.179111,-0.11941 0.0515,-0.0375 0.0955,-0.0852 0.14926,-0.11941 0.0563,-0.0358 0.120519,-0.0576 0.17912,-0.0896 0.0509,-0.0278 0.0974,-0.0636 0.14926,-0.0896 0.0479,-0.024 0.10029,-0.0379 0.149259,-0.0597 0.0407,-0.0181 0.0785,-0.0422 0.119411,-0.0597 0.0843,-0.0361 0.0733,-0.0298 0.14926,-0.0298 0.01,0 0.0199,0 0.0298,0 0.01,0 0.0343,-0.009 0.0299,0 -0.0126,0.0252 -0.0398,0.0398 -0.0597,0.0597 -0.0199,0.0199 -0.0363,0.0441 -0.0597,0.0597 -0.037,0.0247 -0.0796,0.0398 -0.119409,0.0597 -0.0398,0.0199 -0.0781,0.0432 -0.119401,0.0597 -0.0584,0.0234 -0.121019,0.0355 -0.17912,0.0597 -0.12323,0.0513 -0.233619,0.13118 -0.358219,0.17911 -0.0676,0.026 -0.13931,0.0398 -0.20897,0.0597 -0.0696,0.0199 -0.13931,0.0398 -0.20896,0.0597 -0.0697,0.0199 -0.13813,0.0445 -0.20897,0.0597 -1.3e-4,3e-5 -0.417061,0.0596 -0.41792,0.0597 -0.0598,0.009 -0.118771,0.0252 -0.17912,0.0298 -0.0694,0.005 -0.13931,0 -0.20896,0 -0.0597,0 -0.119411,0 -0.179111,0 -0.0498,0 -0.10048,0.01 -0.14927,0 -0.0525,-0.0105 -0.0979,-0.0443 -0.14926,-0.0597 -0.0486,-0.0146 -0.10112,-0.0138 -0.14926,-0.0299 -0.0656,-0.0219 -0.15164,-0.0785 -0.20896,-0.11941 -0.0814,-0.0581 -0.14515,-0.10253 -0.20897,-0.17911 -0.023,-0.0276 -0.0398,-0.0597 -0.0597,-0.0896 -0.0199,-0.0298 -0.0437,-0.0575 -0.0597,-0.0895 -0.0141,-0.0282 -0.0199,-0.0597 -0.0299,-0.0896 -0.01,-0.0298 -0.0247,-0.0585 -0.0299,-0.0896 -0.005,-0.0294 0,-0.0597 0,-0.0896 0,-0.0398 0,-0.0796 0,-0.11941 0,-0.0856 -0.007,-0.12241 0.0299,-0.20896 0.0145,-0.034 0.13907,-0.19538 0.14926,-0.20897 0.0299,-0.0398 0.0544,-0.0842 0.0896,-0.11941 0.0352,-0.0352 0.082,-0.0568 0.11941,-0.0896 0.13356,-0.11687 0.11043,-0.13812 0.26867,-0.23882 0.0563,-0.0358 0.1228,-0.0537 0.17911,-0.0896 0.0538,-0.0342 0.0955,-0.0852 0.14926,-0.1194 0.0563,-0.0358 0.12051,-0.0576 0.17911,-0.0896 0.101881,-0.0556 0.194731,-0.12722 0.298521,-0.17911 0.0479,-0.024 0.100299,-0.0379 0.14927,-0.0597 0.47102,-0.20934 -0.175231,0.0727 0.20896,-0.11941 0.0563,-0.0281 0.12282,-0.0315 0.179109,-0.0597 0.0126,-0.006 0.0181,-0.0221 0.0299,-0.0298 0.0185,-0.0123 0.0597,-0.008 0.0597,-0.0299 0,-0.0199 -0.0402,-0.004 -0.0597,0 -0.0309,0.006 -0.0597,0.0199 -0.0896,0.0299 -0.271739,0.0906 0.15744,-0.0484 -0.238819,0.0597 -0.12143,0.0331 -0.23515,0.093 -0.358221,0.11941 -0.0784,0.0168 -0.16015,0.0141 -0.23882,0.0298 -0.071,0.0142 -0.13813,0.0445 -0.20897,0.0597 -0.0688,0.0147 -0.1393,0.0199 -0.20896,0.0298 -0.0696,0.01 -0.13878,0.0248 -0.20896,0.0298 -0.0695,0.005 -0.13931,0 -0.20897,0 -0.0597,0 -0.11941,0 -0.17911,0 -0.0498,0 -0.0995,0 -0.14926,0 -0.0498,0 -0.0998,0.005 -0.14926,0 -0.0408,-0.005 -0.08,-0.0186 -0.11941,-0.0298 -0.0303,-0.009 -0.065,-0.0102 -0.0896,-0.0298 -0.028,-0.0224 -0.0373,-0.0615 -0.0597,-0.0896 -0.0176,-0.022 -0.0452,-0.0356 -0.0597,-0.0597 -0.0162,-0.027 -0.0199,-0.0597 -0.0299,-0.0896 -0.01,-0.0298 -0.0247,-0.0585 -0.0298,-0.0896 -0.005,-0.0294 0,-0.0597 0,-0.0895 0,-0.0398 0,-0.0796 0,-0.11941 0,-0.0398 -0.005,-0.0799 0,-0.11941 0.0107,-0.0859 0.0439,-0.16582 0.0896,-0.23882 0.0527,-0.0844 0.12391,-0.15602 0.17911,-0.23881 0.0322,-0.0483 0.0539,-0.10346 0.0896,-0.14926 0.0345,-0.0444 0.0796,-0.0796 0.1194,-0.11941 0.21687,-0.21687 0.0739,-0.0849 0.29852,-0.26867 0.001,-9.8e-4 0.3581,-0.29843 0.35823,-0.29852 0.12729,-0.0881 0.31355,-0.16722 0.44778,-0.23882 0.0708,-0.0378 0.13627,-0.0855 0.208971,-0.1194 0.077,-0.0359 0.161769,-0.0536 0.23881,-0.0896 0.439599,-0.2512 -0.0196,-0.0108 0.41793,-0.17912 0.226719,-0.0872 0.12397,-0.0972 0.35823,-0.14926 0.0291,-0.007 0.0603,0.006 0.0896,0 0.19376,-0.0387 -0.0665,-0.0298 0.119409,-0.0298"
       id="path1465"
       inkscape:connector-curvature="0" />
    <path
       style="fill:none;stroke:#000000;stroke-width:0.26458332px;stroke-linecap:butt;stroke-linejoin:miter;stroke-opacity:1"
       d="m 39.402219,101.11693 c -0.39233,0.28909 -0.49247,0.42323 -0.895561,0.56719 -0.0281,0.01 -0.0601,-0.005 -0.0896,0 -0.0621,0.0103 -0.11703,0.0494 -0.17911,0.0597 -0.0294,0.005 -0.06,-0.004 -0.0896,0 -0.0406,0.006 -0.0788,0.0241 -0.11941,0.0298 -0.0296,0.004 -0.06,-0.004 -0.0896,0 -0.0406,0.006 -0.0788,0.0241 -0.11941,0.0298 -0.0683,0.01 -0.1407,-0.01 -0.20897,0 -0.0311,0.004 -0.0584,0.0254 -0.0896,0.0299 -0.0394,0.006 -0.08,-0.006 -0.11941,0 -0.0311,0.004 -0.0584,0.0254 -0.0896,0.0298 -0.0394,0.006 -0.08,-0.006 -0.1194,0 -0.0312,0.004 -0.0593,0.0212 -0.0896,0.0298 -0.0395,0.0113 -0.08,0.0186 -0.11941,0.0299 -0.0302,0.009 -0.0593,0.0212 -0.0895,0.0299 -0.003,8e-4 -0.23828,0.0595 -0.23882,0.0597 -0.033,0.0141 -0.0566,0.0456 -0.0896,0.0597 -5.29e-4,2.3e-4 -0.23611,0.0589 -0.23881,0.0597 -0.14002,0.04 -0.0498,0.0213 -0.20897,0.0896 -0.0579,0.0248 -0.12282,0.0316 -0.17911,0.0597 -0.0321,0.016 -0.0588,0.0413 -0.0896,0.0597 -0.0191,0.0115 -0.0406,0.0184 -0.0597,0.0299 -0.0308,0.0185 -0.0588,0.0412 -0.0896,0.0597 -0.0191,0.0115 -0.0406,0.0184 -0.0597,0.0298 -0.0308,0.0185 -0.0588,0.0413 -0.0896,0.0597 -0.0191,0.0115 -0.0419,0.0165 -0.0597,0.0298 -0.0225,0.0169 -0.0398,0.0398 -0.0597,0.0597 -0.0199,0.0199 -0.0421,0.0377 -0.0597,0.0597 -0.0224,0.028 -0.0373,0.0615 -0.0597,0.0896 -0.074,0.0926 -0.0581,0.0268 -0.1194,0.14926 -0.0141,0.0281 -0.0199,0.0597 -0.0299,0.0895 -0.0199,0.0398 -0.0398,0.0796 -0.0597,0.11941 -0.0398,0.0796 -0.0833,0.15749 -0.11941,0.23882 -0.0742,0.16688 -0.0532,0.14635 -0.11941,0.32837 -0.0183,0.0504 -0.0414,0.0989 -0.0597,0.14926 -0.0747,0.20557 -0.0515,0.16726 -0.11941,0.38808 -0.037,0.1203 -0.0889,0.23611 -0.11941,0.35822 -0.0147,0.0587 -0.0152,0.1204 -0.0299,0.17912 -0.049,0.19612 -0.0689,0.14249 -0.0896,0.32837 -0.004,0.0396 0.005,0.0799 0,0.11941 -0.005,0.0407 -0.024,0.0788 -0.0298,0.11941 -0.006,0.044 0,0.1023 0,0.14926"
       id="path1473"
       inkscape:connector-curvature="0" />
  </g>
</svg>
