<?xml version="1.0" encoding="UTF-8" standalone="no"?>
<!-- Created with Inkscape (http://www.inkscape.org/) -->

<svg
   xmlns:dc="http://purl.org/dc/elements/1.1/"
   xmlns:cc="http://creativecommons.org/ns#"
   xmlns:rdf="http://www.w3.org/1999/02/22-rdf-syntax-ns#"
   xmlns:svg="http://www.w3.org/2000/svg"
   xmlns="http://www.w3.org/2000/svg"
   xmlns:sodipodi="http://sodipodi.sourceforge.net/DTD/sodipodi-0.dtd"
   xmlns:inkscape="http://www.inkscape.org/namespaces/inkscape"
   width="19.778669mm"
   height="29.105148mm"
   viewBox="0 0 19.778669 29.105148"
   version="1.1"
   id="svg1652"
   inkscape:version="0.92.4 (5da689c313, 2019-01-14)"
   sodipodi:docname="hand-pointing.svg">
  <defs
     id="defs1646" />
  <sodipodi:namedview
     id="base"
     pagecolor="#ffffff"
     bordercolor="#666666"
     borderopacity="1.0"
     inkscape:pageopacity="0.0"
     inkscape:pageshadow="2"
     inkscape:zoom="4.4315708"
     inkscape:cx="41.147428"
     inkscape:cy="55.495179"
     inkscape:document-units="mm"
     inkscape:current-layer="layer1"
     showgrid="false"
     inkscape:window-width="1366"
     inkscape:window-height="705"
     inkscape:window-x="-8"
     inkscape:window-y="-8"
     inkscape:window-maximized="1" />
  <metadata
     id="metadata1649">
    <rdf:RDF>
      <cc:Work
         rdf:about="">
        <dc:format>image/svg+xml</dc:format>
        <dc:type
           rdf:resource="http://purl.org/dc/dcmitype/StillImage" />
        <dc:title></dc:title>
      </cc:Work>
    </rdf:RDF>
  </metadata>
  <g
     inkscape:label="Layer 1"
     inkscape:groupmode="layer"
     id="layer1"
     transform="translate(-67.114904,-9.8929501)">
    <path
       style="fill:none;stroke:#000000;stroke-width:0.26458332px;stroke-linecap:butt;stroke-linejoin:miter;stroke-opacity:1"
       d="m 72.309874,24.031426 c -0.004,-0.33843 -0.49075,-0.28616 -0.65675,-0.50749 -0.0134,-0.0178 -0.0175,-0.0412 -0.0299,-0.0597 -0.023,-0.0345 -0.0666,-0.0551 -0.0896,-0.0896 -0.0508,0.0148 -0.0225,-0.0748 -0.0299,-0.0896 -0.0126,-0.0252 -0.0471,-0.0345 -0.0597,-0.0597 -0.004,-0.009 0.003,-0.0204 0,-0.0298 -0.007,-0.0211 -0.0228,-0.0386 -0.0298,-0.0597 -0.003,-0.009 0.004,-0.0209 0,-0.0299 -0.006,-0.0126 -0.0236,-0.0172 -0.0299,-0.0298 -0.004,-0.009 0,-0.0199 0,-0.0298 0,-0.0199 0.006,-0.0408 0,-0.0597 -0.004,-0.0134 -0.0236,-0.0173 -0.0299,-0.0298 -0.01,-0.0198 0.008,-0.0944 0,-0.11941 -0.007,-0.0211 -0.0228,-0.0386 -0.0298,-0.0597 -0.006,-0.0173 0,-0.0935 0,-0.11941 0,-0.0796 0,-0.15921 0,-0.23882 0,-0.0494 -0.007,-0.16852 0,-0.20896 0.005,-0.031 0.0237,-0.0587 0.0298,-0.0896 0.004,-0.0195 -0.004,-0.0402 0,-0.0597 0.006,-0.0309 0.0247,-0.0585 0.0299,-0.0896 0.005,-0.0294 -0.005,-0.0601 0,-0.0896 0.005,-0.031 0.0247,-0.0585 0.0299,-0.0896 0.005,-0.0294 -0.005,-0.0601 0,-0.0896 0.005,-0.031 0.0247,-0.0585 0.0298,-0.0896 0.01,-0.0589 -0.008,-0.12001 0,-0.17912 0.006,-0.0406 0.0241,-0.0788 0.0298,-0.11941 0.004,-0.0296 -0.005,-0.0601 0,-0.0896 0.005,-0.031 0.0254,-0.0584 0.0298,-0.0896 0.006,-0.0394 -0.006,-0.08 0,-0.119404 0.004,-0.03115 0.0254,-0.05841 0.0299,-0.08956 0.006,-0.0394 -0.006,-0.08001 0,-0.119409 0.003,-0.0223 0.0565,-0.1568 0.0597,-0.179112 0.006,-0.0394 -0.006,-0.08001 0,-0.11941 10e-5,-7.94e-4 0.0589,-0.176432 0.0597,-0.179112 0.101469,-0.355118 -0.017,0.07205 0.0299,-0.208965 0.0103,-0.06208 0.0508,-0.116811 0.0597,-0.179112 0.006,-0.0394 -0.006,-0.08 0,-0.11941 0.004,-0.03115 0.0212,-0.0593 0.0298,-0.08956 0.0113,-0.03945 0.0241,-0.07879 0.0299,-0.119406 0.004,-0.02955 -0.004,-0.06001 0,-0.08956 0.006,-0.04062 0.0199,-0.07961 0.0298,-0.119408 0.0933,-0.373291 -0.026,0.09082 0.0597,-0.208966 0.0113,-0.03945 0.0137,-0.0817 0.0299,-0.11941 0.0141,-0.03298 0.0456,-0.05658 0.0597,-0.08956 0.0162,-0.03771 0.0186,-0.07996 0.0298,-0.119406 0.0173,-0.06051 0.0424,-0.118603 0.0597,-0.179115 0.0113,-0.03945 0.0186,-0.07996 0.0298,-0.119407 0.009,-0.03026 0.0212,-0.0593 0.0299,-0.08956 0.0113,-0.03945 0.0186,-0.07996 0.0298,-0.119409 0.009,-0.03026 0.0212,-0.0593 0.0299,-0.08956 0.0113,-0.03945 0.0137,-0.0817 0.0298,-0.119409 0.0141,-0.03298 0.0456,-0.05658 0.0597,-0.08956 0.0162,-0.03771 0.0137,-0.0817 0.0298,-0.119409 0.0141,-0.03297 0.0398,-0.0597 0.0597,-0.08956 0.01,-0.0398 0.0137,-0.0817 0.0299,-0.119406 0.0141,-0.03298 0.0456,-0.05658 0.0597,-0.08956 0.0162,-0.03771 0.0137,-0.0817 0.0298,-0.11941 0.0141,-0.03298 0.0437,-0.05747 0.0597,-0.08956 0.0141,-0.02815 0.0199,-0.05971 0.0298,-0.08956 0.0199,-0.02985 0.0437,-0.05747 0.0597,-0.08956 0.0141,-0.02815 0.0158,-0.06141 0.0298,-0.08956 0.0161,-0.03209 0.0437,-0.05747 0.0597,-0.08956 0.0141,-0.02815 0.0136,-0.06257 0.0298,-0.08956 0.0145,-0.02413 0.0452,-0.03557 0.0597,-0.0597 0.0162,-0.02698 0.0136,-0.06257 0.0298,-0.08956 0.029,-0.04827 0.0842,-0.07545 0.119409,-0.119409 0.0542,-0.0349 0.0547,-0.102841 0.0896,-0.149259 0.0169,-0.02252 0.0398,-0.0398 0.0597,-0.0597 0.0398,-0.0398 0.0796,-0.07961 0.119401,-0.119409 0.0299,-0.02985 0.0597,-0.0597 0.0896,-0.08956 0.0199,-0.0199 0.0372,-0.04282 0.0597,-0.0597 0.0178,-0.01336 0.0419,-0.01651 0.0597,-0.02985 0.0225,-0.01688 0.0356,-0.04523 0.0597,-0.0597 0.027,-0.01619 0.0603,-0.01818 0.0896,-0.02985 0.15426,-0.06171 -0.0349,0.0021 0.119409,-0.0597 0.0292,-0.0117 0.0603,-0.01818 0.0896,-0.02985 0.0207,-0.0083 0.0398,-0.0199 0.0597,-0.02985 0.0871,-0.04353 0.174681,-0.09255 0.26867,-0.119409 0.0191,-0.0055 0.0404,0.0048 0.0597,0 0.0432,-0.0108 0.0762,-0.04891 0.119411,-0.0597 0.0386,-0.0097 0.0808,0.0097 0.119409,0 0.0216,-0.0054 0.0381,-0.02445 0.0597,-0.02985 0.0386,-0.0097 0.0808,0.0097 0.11941,0 0.0216,-0.0054 0.0381,-0.02445 0.0597,-0.02985 0.0193,-0.0048 0.0398,0 0.0597,0 0.0199,0 0.0398,0 0.0597,0 0.0347,0 0.12219,0.0068 0.14925,0 0.0216,-0.0054 0.0381,-0.02445 0.0597,-0.02985 0.0193,-0.0048 0.0398,0 0.0597,0 0.0697,0 0.13931,0 0.20897,0 0.0253,0 0.16265,-0.0055 0.17911,0 0.0134,0.0044 0.0165,0.0254 0.0298,0.02985 0.0189,0.0063 0.0408,-0.0063 0.0597,0 0.0133,0.0044 0.0165,0.0254 0.0298,0.02985 0.0189,0.0063 0.0408,-0.0063 0.0597,0 0.0133,0.0044 0.0173,0.02355 0.0299,0.02985 0.009,0.0044 0.021,-0.0044 0.0299,0 0.0126,0.0063 0.0173,0.02355 0.0298,0.02985 0.0178,0.0089 0.0419,-0.0089 0.0597,0 0.0126,0.0063 0.0173,0.02355 0.0299,0.02985 0.009,0.0044 0.021,-0.0044 0.0299,0 0.0126,0.0063 0.0173,0.02355 0.0298,0.02985 0.002,7.94e-4 0.088,7.94e-4 0.0896,0 0.0126,-0.0063 0.0173,-0.02355 0.0298,-0.02985 0.009,-0.0044 0.0209,0.0044 0.0298,0 0.0126,-0.0063 0.0173,-0.02355 0.0298,-0.02985 0.009,-0.0044 0.0199,0 0.0299,0 0.0199,-0.0099 0.0412,-0.01752 0.0597,-0.02985 0.0117,-0.0078 0.0165,-0.0254 0.0298,-0.02985 0.0189,-0.0063 0.0404,0.0048 0.0597,0 0.0216,-0.0054 0.0391,-0.02159 0.0597,-0.02985 0.0292,-0.01169 0.0603,-0.01818 0.0896,-0.02985 0.1714,-0.06856 -0.052,0.0089 0.1194,-0.0597 0.0584,-0.02336 0.12068,-0.03633 0.17912,-0.05971 0.0207,-0.0083 0.0379,-0.02548 0.0597,-0.02985 0.0293,-0.0058 0.0601,0.0049 0.0896,0 0.17229,-0.02872 0.007,-0.03099 0.17911,-0.05971 0.0294,-0.0049 0.0601,0.0049 0.0896,0 0.031,-0.0052 0.0585,-0.02468 0.0896,-0.02985 0.0294,-0.0049 0.0601,0.0049 0.0896,0 0.031,-0.0052 0.0584,-0.0254 0.0895,-0.02985 0.0394,-0.0056 0.0796,0 0.11941,0 0.119411,0 0.238821,0 0.358231,0 0.0597,0 0.11941,0 0.17911,0 0.0298,0 0.0601,-0.0049 0.0896,0 0.031,0.0052 0.0585,0.02469 0.0896,0.02985 0.0294,0.0049 0.0603,-0.0058 0.0896,0 0.0218,0.0044 0.0379,0.02548 0.0597,0.02985 0.0293,0.0058 0.0603,-0.0058 0.0896,0 0.0436,0.0087 0.0762,0.04891 0.11941,0.05971 0.0193,0.0048 0.0404,-0.0048 0.0597,0 0.0866,0.02164 0.0349,0.02328 0.0896,0.0597 0.21644,0.108223 -0.0472,-0.03147 0.0896,0.0597 0.0185,0.01233 0.0412,0.01752 0.0597,0.02985 0.0234,0.01561 0.0372,0.04282 0.0597,0.0597 0.0287,0.02154 0.0609,0.03818 0.0896,0.05971 0.0225,0.01688 0.0363,0.04409 0.0597,0.0597 0.0185,0.01233 0.0412,0.01752 0.0597,0.02985 0.0234,0.01561 0.0398,0.0398 0.0597,0.0597 0.0298,0.02985 0.0597,0.05971 0.0896,0.08956 0.0498,0.04975 0.0995,0.09951 0.14926,0.149262 0.0157,0.01572 0.0736,0.08158 0.0895,0.08956 0.009,0.0044 0.0228,-0.007 0.0299,0 0.007,0.007 -0.007,0.02281 0,0.02985 0.0233,0.02334 0.0519,-0.02596 0.0597,-0.02985 0.009,-0.0044 0.021,0.0044 0.0298,0 0.0126,-0.0063 0.0173,-0.02355 0.0299,-0.02985 0.009,-0.0044 0.0209,0.0044 0.0299,0 0.0126,-0.0063 0.0165,-0.0254 0.0298,-0.02985 0.0189,-0.0063 0.0408,0.0063 0.0597,0 0.0134,-0.0044 0.0199,-0.0199 0.0299,-0.02985 0.0199,-0.0099 0.0379,-0.02548 0.0597,-0.02985 0.0293,-0.0058 0.0603,0.0058 0.0896,0 0.0218,-0.0044 0.0398,-0.0199 0.0597,-0.02985 0.0298,-0.0099 0.0585,-0.02468 0.0896,-0.02985 0.0294,-0.0049 0.0601,0.0049 0.0896,0 0.031,-0.0052 0.0597,-0.0199 0.0896,-0.02985 0.0398,-0.0099 0.0788,-0.02405 0.11941,-0.02985 0.0296,-0.0042 0.0597,0 0.0896,0 0.0398,-0.0099 0.0788,-0.02405 0.11941,-0.02985 0.0296,-0.0042 0.0597,0 0.0896,0 0.0398,0 0.0796,0 0.11941,0 0.17911,0 0.35822,0 0.53733,0 0.0299,0 0.0597,0 0.0896,0 0.0298,0 0.0603,-0.0058 0.0896,0 0.0218,0.0044 0.0379,0.02548 0.0597,0.02985 0.0293,0.0058 0.0601,-0.0049 0.0896,0 0.031,0.0052 0.0597,0.0199 0.0895,0.02985 0.0299,0.0099 0.0603,0.01818 0.0896,0.02985 0.0207,0.0083 0.0379,0.02548 0.0597,0.02985 0.0293,0.0058 0.0603,-0.0058 0.0896,0 0.0372,0.0074 0.12917,0.07951 0.14926,0.08956 0.0282,0.01408 0.0603,0.01818 0.0896,0.02985 0.0207,0.0083 0.039,0.02159 0.0597,0.02985 0.0292,0.0117 0.0626,0.01365 0.0896,0.02985 0.28052,0.168314 -0.18901,-0.04575 0.14926,0.08956 0.10322,0.04129 0.0208,0.01558 0.11941,0.08956 0.0178,0.01336 0.0419,0.01651 0.0597,0.02985 0.0225,0.01688 0.0372,0.04282 0.0597,0.0597 0.0356,0.0267 0.088,0.02824 0.11941,0.05971 0.0157,0.01574 0.0141,0.04397 0.0299,0.0597 0.0157,0.01574 0.0412,0.01752 0.0597,0.02985 0.0272,0.01812 0.0631,0.07633 0.0896,0.08956 0.0412,0.02059 0.0267,-0.03615 0.0597,0.02985 0.004,0.0089 0,0.0199 0,0.02985 0,0.04975 0.01,0.02985 -0.0597,0.02985"
       id="path1433"
       inkscape:connector-curvature="0" />
    <path
       style="fill:none;stroke:#000000;stroke-width:0.26458332px;stroke-linecap:butt;stroke-linejoin:miter;stroke-opacity:1"
       d="m 83.086923,16.956185 c 0.0695,-0.248671 0.13159,-0.499536 0.20852,-0.746011 0.0226,-0.07234 0.0637,-0.137745 0.0896,-0.208965 0.014,-0.03856 0.0199,-0.07961 0.0299,-0.119409 0.01,-0.0398 0.0199,-0.07961 0.0298,-0.119407 0.0323,-0.129272 0.0634,-0.257362 0.0896,-0.388077 0.0776,-0.387742 -0.0283,0.09422 0.0896,-0.298522 0.0146,-0.0486 0.0208,-0.09934 0.0299,-0.149259 0.0199,-0.109403 0.0398,-0.218974 0.0597,-0.328374 0.0108,-0.05955 0.0152,-0.120391 0.0298,-0.179113 0.0153,-0.06106 0.0444,-0.118057 0.0597,-0.179112 0.0147,-0.05872 0.0152,-0.120393 0.0299,-0.179112 0.0153,-0.06106 0.0398,-0.11941 0.0597,-0.179113 0.0597,-0.179112 0.11941,-0.358224 0.17911,-0.537337 0.0597,-0.179115 0.11941,-0.358227 0.17912,-0.537339 0.0199,-0.0597 0.0337,-0.12182 0.0597,-0.179113 0.024,-0.05282 0.0656,-0.09644 0.0896,-0.149259 0.026,-0.05729 0.0355,-0.121021 0.0597,-0.179112 0.0513,-0.123235 0.12777,-0.234993 0.17911,-0.358225 0.16623,-0.498674 -0.054,0.118721 0.14927,-0.328374 0.026,-0.05729 0.0316,-0.122823 0.0597,-0.179113 0.0222,-0.0445 0.0654,-0.07592 0.0896,-0.119409 0.026,-0.04684 0.0337,-0.102417 0.0597,-0.149259 0.0242,-0.04349 0.0632,-0.07722 0.0896,-0.119409 0.0236,-0.03774 0.0361,-0.08167 0.0597,-0.119409 0.0264,-0.04219 0.0597,-0.07961 0.0896,-0.119407 0.0298,-0.0398 0.0572,-0.08163 0.0896,-0.119409 0.0275,-0.03205 0.0597,-0.0597 0.0896,-0.08956 0.0597,-0.05971 0.11941,-0.119409 0.17911,-0.179113 0.0298,-0.02985 0.0571,-0.06253 0.0896,-0.08956 0.0799,-0.06655 0.18705,-0.113821 0.26867,-0.179112 0.022,-0.0176 0.0356,-0.04523 0.0597,-0.05971 0.027,-0.01619 0.0603,-0.01815 0.0896,-0.02985 0.0207,-0.0083 0.0379,-0.02548 0.0597,-0.02985 0.0488,-0.0098 0.0995,0 0.14926,0 0.0167,0 0.1356,-0.0046 0.14926,0 0.006,0.0021 0.0841,0.08135 0.0896,0.08956 0.0127,0.01902 0.0847,0.15975 0.0896,0.179112 0.005,0.01932 -0.004,0.04019 0,0.0597 0.006,0.03086 0.0182,0.06034 0.0298,0.08956 0.008,0.02066 0.0255,0.03789 0.0298,0.05971 0.0136,0.0683 -0.01,0.140009 0,0.208965 0.004,0.03115 0.0254,0.0584 0.0298,0.08956 0.0127,0.08865 -0.009,0.179557 0,0.268669 0.005,0.05048 0.0248,0.09877 0.0299,0.149259 0.005,0.04951 0,0.09951 0,0.149262 0,0.04975 0,0.09951 0,0.149259 0,0.0597 0,0.119409 0,0.179113 0,0.0597 0.005,0.119615 0,0.179112 -1e-5,1.61e-4 -0.0595,0.357188 -0.0597,0.358225 -1.3e-4,7.94e-4 -0.0597,0.417798 -0.0597,0.41793 -0.0897,0.41877 -0.0337,-0.0096 -0.11941,0.447781 -0.0148,0.07885 -0.0159,0.159814 -0.0298,0.238818 -0.016,0.09034 -0.0398,0.179113 -0.0597,0.268669 -0.0199,0.08956 -0.0398,0.179112 -0.0597,0.268668 -0.0199,0.08956 -0.0352,0.180274 -0.0597,0.268669 -0.0253,0.09096 -0.0655,0.177376 -0.0896,0.268668 -0.0516,0.196273 -0.0702,0.400146 -0.1194,0.597043 -0.0252,0.100785 -0.0597,0.199014 -0.0896,0.298519 -0.0199,0.109458 -0.0339,0.220146 -0.0597,0.328374 -0.0241,0.101063 -0.0655,0.197459 -0.0896,0.298522 -0.0515,0.216453 -0.0701,0.439774 -0.11941,0.656746 -0.0503,0.221268 -0.12882,0.435478 -0.17911,0.656746 -0.0247,0.108484 -0.035,0.219887 -0.0597,0.328372 -0.0982,0.432239 -0.0733,0.230476 -0.20897,0.656746 -0.0688,0.21623 -0.11031,0.440518 -0.17911,0.656746 -0.0706,0.221975 -0.16516,0.435761 -0.23882,0.656746 -0.37562,1.126876 0.21237,-0.546579 -0.20896,0.597043 -0.0326,0.08858 -0.0553,0.180686 -0.0896,0.268668 -0.0355,0.09134 -0.0839,0.177329 -0.11941,0.268669 -0.0342,0.08798 -0.0581,0.179649 -0.0896,0.268668 -0.0566,0.160347 -0.12193,0.317497 -0.17912,0.477627 -0.0212,0.0593 -0.0355,0.12102 -0.0597,0.17912 -0.0702,0.16842 -0.0946,0.17627 -0.17911,0.32837 -0.0216,0.0389 -0.0368,0.0812 -0.0597,0.11941 -0.0134,0.0222 -0.0691,0.0692 -0.0896,0.0896"
       id="path1439"
       inkscape:connector-curvature="0" />
    <path
       style="fill:none;stroke:#000000;stroke-width:0.26458332px;stroke-linecap:butt;stroke-linejoin:miter;stroke-opacity:1"
       d="m 81.802843,25.643436 c 1.14007,-0.34698 0.33559,-0.0603 0.92541,-0.32837 0.0286,-0.013 0.0614,-0.0158 0.0896,-0.0299 0.35847,-0.17923 -0.1284,0.0472 0.14926,-0.1194 0.027,-0.0162 0.0634,-0.0124 0.0896,-0.0299 0.0351,-0.0234 0.0571,-0.0625 0.0896,-0.0896 0.0276,-0.023 0.0615,-0.0373 0.0896,-0.0597 0.022,-0.0176 0.0398,-0.0398 0.0597,-0.0597 0.0298,-0.0298 0.0597,-0.0597 0.0896,-0.0896 0.0597,-0.0597 0.11941,-0.11941 0.17911,-0.17911 0.0298,-0.0298 0.0621,-0.0575 0.0896,-0.0896 0.0324,-0.0378 0.0572,-0.0816 0.0896,-0.11941 0.0275,-0.0321 0.065,-0.0552 0.0896,-0.0896 0.0259,-0.0362 0.0361,-0.0817 0.0597,-0.11941 0.0264,-0.0422 0.0597,-0.0796 0.0896,-0.11941 0.0298,-0.0398 0.0597,-0.0796 0.0896,-0.1194 0.0299,-0.0398 0.0654,-0.0759 0.0896,-0.11941 0.026,-0.0469 0.0337,-0.10242 0.0597,-0.14926 0.0241,-0.0435 0.0654,-0.0759 0.0895,-0.11941 0.026,-0.0469 0.0357,-0.10134 0.0597,-0.14926 0.0259,-0.0519 0.0636,-0.0974 0.0896,-0.14926 0.024,-0.0479 0.0375,-0.10048 0.0597,-0.14926 0.10696,-0.23531 0.07,-0.1105 0.149261,-0.32838 0.0215,-0.0591 0.0398,-0.11941 0.0597,-0.17911 0.0199,-0.0597 0.0444,-0.11806 0.0597,-0.17911 0.0147,-0.0587 0.0152,-0.1204 0.0298,-0.17911 0.0153,-0.0611 0.0444,-0.11806 0.0597,-0.17912 5e-5,-1.8e-4 0.0595,-0.35722 0.0597,-0.35822 0.009,-0.0499 0.0253,-0.0987 0.0298,-0.14926 0.005,-0.0595 -0.005,-0.11966 0,-0.17912 0.005,-0.0505 0.0253,-0.0987 0.0298,-0.14926 0.005,-0.0595 0,-0.1194 0,-0.17911 0,-0.04975 0,-0.0995 0,-0.14926 0,-0.15921 0,-0.31842 0,-0.477633 0,-0.0398 0,-0.07961 0,-0.119407 0,-0.04976 0.006,-0.09989 0,-0.149262 -0.004,-0.03122 -0.0212,-0.0593 -0.0298,-0.08956 -0.0283,-0.09907 -0.0239,-0.119497 -0.0597,-0.208965 -0.008,-0.02066 -0.0216,-0.03905 -0.0298,-0.0597 -0.0117,-0.02922 -0.0158,-0.06141 -0.0299,-0.08956 -0.006,-0.01259 -0.022,-0.01815 -0.0298,-0.02985 -0.0723,-0.108437 0.009,-0.02111 -0.0597,-0.08956"
       id="path1443"
       inkscape:connector-curvature="0" />
    <path
       style="fill:none;stroke:#000000;stroke-width:0.26458332px;stroke-linecap:butt;stroke-linejoin:miter;stroke-opacity:1"
       d="m 72.309874,24.031426 c -0.0769,0.29413 -0.15042,0.58915 -0.23064,0.88239 -0.0811,0.29645 -0.15611,0.59499 -0.2533,0.88656 -0.19373,0.58118 -0.46478,1.13227 -0.71769,1.68869 -0.0535,0.11777 -0.42532,0.93808 -0.46439,1.01321 -0.0902,0.17345 -0.20533,0.33316 -0.29552,0.50661 -0.093,0.17876 -0.1659,0.36728 -0.25331,0.54882 -0.0955,0.19847 -0.19412,0.3955 -0.29552,0.59104 -0.33613,0.64826 -0.26557,0.47803 -0.63326,1.13987 -0.33603,0.60486 -0.23991,0.47858 -0.59104,1.05543 -0.0954,0.15673 -0.20217,0.30643 -0.29552,0.46439 -0.0897,0.15181 -0.15914,0.31531 -0.2533,0.46439 -0.0751,0.11898 -0.17358,0.22178 -0.2533,0.33774 -0.15633,0.19294 -0.24341,0.42843 -0.37996,0.63326 -0.0221,0.0331 -0.0606,0.0526 -0.0844,0.0844 -0.15336,0.20447 0.0447,-0.002 -0.0844,0.12665"
       id="path1453"
       inkscape:connector-curvature="0" />
    <path
       style="fill:none;stroke:#000000;stroke-width:0.26458332px;stroke-linecap:butt;stroke-linejoin:miter;stroke-opacity:1"
       d="m 81.802843,25.643436 c -0.19161,0.0725 -0.38577,0.1286 -0.58358,0.17805 -0.0281,0.007 -0.0556,0.0179 -0.0844,0.0211 -0.035,0.004 -0.0705,-0.003 -0.10554,0 -0.0714,0.007 -0.13958,0.0363 -0.21109,0.0422 -0.0491,0.004 -0.0986,-0.004 -0.14776,0 -0.0427,0.003 -0.084,0.0178 -0.12665,0.0211 -0.0491,0.004 -0.0985,0 -0.14776,0 -0.0563,0 -0.11258,0 -0.16887,0 -0.0493,0 -0.0986,-0.003 -0.14776,0 -0.43445,0.029 0.11418,0.0211 -0.35885,0.0211 -0.0563,0 -0.11269,-0.004 -0.16886,0 -0.43549,0.0272 0.0769,0.0211 -0.31663,0.0211 -0.0281,0 -0.0563,0 -0.0844,0 -0.0211,0 -0.0426,0.004 -0.0633,0 -0.0154,-0.003 -0.0281,-0.0141 -0.0422,-0.0211 -0.0845,0.29553 -0.16894,0.59107 -0.25341,0.8866 -0.0141,0.0844 -0.0215,0.17026 -0.0422,0.25331 -0.0216,0.0863 -0.0658,0.16627 -0.0844,0.2533 -0.0238,0.11094 -0.0213,0.22623 -0.0422,0.33774 -0.0214,0.11405 -0.0593,0.22446 -0.0844,0.33774 -0.0311,0.14009 -0.0526,0.28223 -0.0844,0.42217 -0.0772,0.33947 -0.17502,0.674 -0.25331,1.01321 -0.0453,0.19633 -0.0794,0.39518 -0.12665,0.59104 -0.23091,0.95665 -0.10234,0.32167 -0.37995,1.30874 -0.15099,0.53683 -0.19777,0.84884 -0.33774,1.39317 -0.0655,0.25461 -0.13886,0.50713 -0.21109,0.75991 -0.0685,0.23977 -0.142579,0.47792 -0.211079,0.71769 -0.0722,0.25278 -0.13887,0.50713 -0.21109,0.75991 -0.13701,0.47954 -0.29095,0.95423 -0.42217,1.43539 -0.0611,0.223912 -0.10907,0.45122 -0.16887,0.675471 -0.10559,0.395959 -0.23835,0.784529 -0.33774,1.182079 -0.0208,0.0831 -0.0281,0.16887 -0.0422,0.253312 -0.054,0.32408 -0.0254,0.16936 -0.0844,0.464389"
       id="path1457"
       inkscape:connector-curvature="0" />
  </g>
</svg>
