<?xml version="1.0" encoding="UTF-8" standalone="no"?>
<!-- Created with Inkscape (http://www.inkscape.org/) -->

<svg
   xmlns:dc="http://purl.org/dc/elements/1.1/"
   xmlns:cc="http://creativecommons.org/ns#"
   xmlns:rdf="http://www.w3.org/1999/02/22-rdf-syntax-ns#"
   xmlns:svg="http://www.w3.org/2000/svg"
   xmlns="http://www.w3.org/2000/svg"
   xmlns:sodipodi="http://sodipodi.sourceforge.net/DTD/sodipodi-0.dtd"
   xmlns:inkscape="http://www.inkscape.org/namespaces/inkscape"
   width="36.645142mm"
   height="38.466759mm"
   viewBox="0 0 36.645142 38.466759"
   version="1.1"
   id="svg3464"
   inkscape:version="0.92.4 (5da689c313, 2019-01-14)"
   sodipodi:docname="user-w-laptop.svg">
  <defs
     id="defs3458" />
  <sodipodi:namedview
     id="base"
     pagecolor="#ffffff"
     bordercolor="#666666"
     borderopacity="1.0"
     inkscape:pageopacity="0.0"
     inkscape:pageshadow="2"
     inkscape:zoom="0.78339844"
     inkscape:cx="-270.47508"
     inkscape:cy="34.019428"
     inkscape:document-units="mm"
     inkscape:current-layer="layer1"
     showgrid="false"
     inkscape:window-width="1366"
     inkscape:window-height="705"
     inkscape:window-x="-8"
     inkscape:window-y="-8"
     inkscape:window-maximized="1" />
  <metadata
     id="metadata3461">
    <rdf:RDF>
      <cc:Work
         rdf:about="">
        <dc:format>image/svg+xml</dc:format>
        <dc:type
           rdf:resource="http://purl.org/dc/dcmitype/StillImage" />
        <dc:title></dc:title>
      </cc:Work>
    </rdf:RDF>
  </metadata>
  <g
     inkscape:label="Layer 1"
     inkscape:groupmode="layer"
     id="layer1"
     transform="translate(-122.51412,-119.36755)">
    <path
       style="fill:none;stroke:#000000;stroke-width:0.26458332px;stroke-linecap:butt;stroke-linejoin:miter;stroke-opacity:1"
       d="m 148.25494,119.50887 c -0.3518,0 -0.70419,-0.0201 -1.05543,0 -0.14327,0.008 -0.28247,0.0516 -0.42217,0.0844 -0.11385,0.0268 -0.43049,0.12336 -0.54882,0.16887 -0.10003,0.0385 -0.19701,0.0844 -0.29552,0.12665 -0.29374,0.12589 -0.33763,0.13785 -0.63326,0.29552 -0.10011,0.0534 -0.19541,0.11548 -0.29552,0.16887 -0.11106,0.0592 -0.22981,0.10411 -0.33774,0.16887 -0.1038,0.0623 -0.19577,0.1425 -0.29552,0.21109 -0.12543,0.0862 -0.2556,0.16552 -0.37996,0.2533 -0.18008,0.12712 -0.55276,0.42055 -0.71769,0.54882 -0.52221,0.40617 -0.25466,0.19529 -0.80213,0.63326 -0.14072,0.11258 -0.28786,0.21757 -0.42217,0.33774 -0.13348,0.11943 -0.24993,0.25677 -0.37995,0.37996 -0.13745,0.1302 -0.29197,0.24251 -0.42218,0.37995 -0.12394,0.13083 -0.22515,0.28145 -0.33773,0.42217 -0.11258,0.14073 -0.22516,0.28145 -0.33774,0.42218 -0.11258,0.14072 -0.23439,0.27453 -0.33774,0.42217 -0.2887,0.41243 -0.46916,0.87916 -0.63326,1.35095 -0.0585,0.16812 -0.1257,0.33392 -0.16887,0.50661 -0.0415,0.16608 -0.0563,0.33773 -0.0844,0.5066 -0.0281,0.16887 -0.0708,0.33596 -0.0844,0.50661 -0.0146,0.18236 0,0.36588 0,0.54883 0,0.18294 0,0.36588 0,0.54882 0,0.18294 -0.014,0.36642 0,0.54882 0.0142,0.18455 0.0563,0.36588 0.0844,0.54883 0.11559,0.75134 0.0336,0.37085 0.2533,1.13986 0.0563,0.19702 0.10408,0.39666 0.16887,0.59104 0.19175,0.57526 0.46442,1.11881 0.75991,1.64648 0.0955,0.17057 0.18708,0.34394 0.29552,0.5066 0.11709,0.17564 0.25331,0.33774 0.37996,0.50661 0.12665,0.16887 0.24144,0.34732 0.37995,0.50661 0.32622,0.37515 0.59103,0.56992 0.971,0.88656 0.16887,0.14072 0.32587,0.29705 0.50661,0.42217 0.18656,0.12916 0.39402,0.22516 0.59104,0.33774 0.19701,0.11258 0.38669,0.23909 0.59104,0.33774 0.20474,0.0988 0.42124,0.17123 0.63326,0.2533 0.81401,0.3151 0.51821,0.21399 1.35095,0.42217 0.50936,0.12734 0.86747,0.23368 1.39317,0.29552 0.238,0.028 0.47846,0.0282 0.71769,0.0422 0.47702,0.0281 0.95672,0.0704 1.43539,0.0422 0.386,-0.0227 1.0583,-0.13345 1.43538,-0.21109 0.39247,-0.0808 1.0582,-0.24683 1.43539,-0.37996 0.24397,-0.0861 0.47846,-0.19701 0.71769,-0.29551 0.23923,-0.0985 0.48489,-0.18265 0.71769,-0.29552 0.23247,-0.11271 0.45207,-0.25024 0.67548,-0.37996 0.43817,-0.25442 0.82901,-0.48285 1.2243,-0.80213 0.19022,-0.15364 0.85797,-0.79458 1.01321,-0.97099 0.15249,-0.17327 0.286,-0.36248 0.42218,-0.54883 0.27389,-0.3748 0.50944,-0.72336 0.71769,-1.13986 0.19912,-0.39825 0.33275,-0.80014 0.46439,-1.2243 0.0607,-0.19569 0.12079,-0.39187 0.16887,-0.59104 0.14617,-0.6056 0.23107,-1.23499 0.2533,-1.85756 0.007,-0.19689 0,-0.39403 0,-0.59104 0,-0.19702 0.0145,-0.39457 0,-0.59105 -0.0188,-0.25353 -0.15046,-0.90606 -0.21108,-1.13986 -0.21461,-0.82779 -0.5981,-1.52293 -1.05544,-2.23752 -0.20574,-0.32148 -0.47502,-0.71945 -0.71769,-1.01321 -0.13324,-0.16128 -0.28145,-0.30959 -0.42217,-0.46439 -0.14073,-0.1548 -0.27068,-0.32011 -0.42217,-0.46439 -0.14484,-0.13794 -0.3096,-0.2533 -0.46439,-0.37995 -0.31655,-0.25899 -0.5859,-0.49407 -0.92878,-0.7177 -0.36674,-0.23917 -0.62432,-0.35437 -1.01322,-0.54882 -0.50732,-0.25366 -0.51164,-0.27616 -1.05543,-0.46439 -0.38435,-0.13304 -0.664,-0.20158 -1.05543,-0.29552 -0.18256,-0.0438 -0.36445,-0.0912 -0.54882,-0.12665 -0.18176,-0.0349 -0.36588,-0.0563 -0.54883,-0.0844 -0.18294,-0.0281 -0.36504,-0.0624 -0.54882,-0.0844 -0.16825,-0.0202 -0.33779,-0.0275 -0.50661,-0.0422 -0.15485,-0.0135 -0.30965,-0.0275 -0.46439,-0.0422 -0.14079,-0.0134 -0.28094,-0.0348 -0.42217,-0.0422 -0.12648,-0.007 -0.2533,0 -0.37996,0 -0.15479,0 -0.30959,0 -0.46438,0"
       id="path1523"
       inkscape:connector-curvature="0" />
    <path
       style="fill:none;stroke:#000000;stroke-width:0.26458332px;stroke-linecap:butt;stroke-linejoin:miter;stroke-opacity:1"
       d="m 142.59784,128.45892 c -0.0141,0.32367 -0.0422,0.64703 -0.0422,0.971 0,0.0199 0.0333,0.0244 0.0422,0.0422 0.006,0.0126 -0.005,0.0554 0,0.0422 0.10875,-0.29 0.11002,-0.31346 0.16887,-0.54882 0.0141,-0.0563 0.0358,-0.1112 0.0422,-0.16887 0.008,-0.0699 -0.008,-0.14116 0,-0.21109 0.0559,-0.50282 0.0422,0.16016 0.0422,-0.33773 0,-0.003 0.009,-0.31216 0,-0.33774 -0.0174,-0.0522 -0.0469,-0.0422 -0.0844,-0.0422 -0.0141,0 -0.0296,-0.006 -0.0422,0 -0.0178,0.009 -0.0312,0.0257 -0.0422,0.0422 -0.0175,0.0262 -0.0233,0.0593 -0.0422,0.0844 -0.0239,0.0318 -0.0666,0.0488 -0.0844,0.0844 -0.19054,0.38107 0.10594,-0.0661 0.0422,0.37995 -0.0196,0.13721 -0.12226,0.24944 -0.16887,0.37996 -0.0674,0.18861 -0.0422,0.39552 -0.0422,0.59104 0,0.0704 0,0.14072 0,0.21109 0,0.0141 -0.01,0.0323 0,0.0422 0.0222,0.0222 0.0546,0.0323 0.0844,0.0422 0.0134,0.004 0.0323,0.01 0.0422,0 0.002,-0.002 0.08,-0.16156 0.0844,-0.16887 0.0261,-0.0435 0.0644,-0.08 0.0844,-0.12666 0.0229,-0.0533 0.0282,-0.11258 0.0422,-0.16887 0.0141,-0.0563 0.0358,-0.1112 0.0422,-0.16886 0.008,-0.0699 0,-0.14073 0,-0.21109 0,-0.12665 0,-0.2533 0,-0.37996 0,-0.11257 0,-0.22515 0,-0.33773 0,-0.0281 0,-0.0563 0,-0.0844 0,-0.0281 0.0126,-0.0593 0,-0.0844 -0.006,-0.0126 -0.0282,0 -0.0422,0 -0.0141,0 -0.0323,-0.01 -0.0422,0 -0.01,0.01 0.006,0.0296 0,0.0422 -0.0118,0.0236 -0.12665,0.17565 -0.12665,0.21108 0,0.0718 0.0596,0.14148 0.0422,0.21109 -0.0275,0.11007 -0.12192,0.19223 -0.16887,0.29552 -0.0607,0.13355 -0.0422,0.28112 -0.0422,0.42217 0,0.0422 0,0.0844 0,0.12665 0,0.0141 -0.006,0.0296 0,0.0422 0.009,0.0178 0.0244,0.0333 0.0422,0.0422 0.0126,0.006 0.0281,0 0.0422,0 0.0845,0 0.0117,0.0126 0.0844,-0.0844 0.0239,-0.0318 0.0639,-0.0503 0.0844,-0.0844 0.0226,-0.0376 0.081,-0.27137 0.0844,-0.29552 0.006,-0.0418 -0.006,-0.0849 0,-0.12665 0.008,-0.0574 0.035,-0.11129 0.0422,-0.16887 0.007,-0.0559 0,-0.11258 0,-0.16887 0,-0.13209 0.008,-0.16038 -0.0844,-0.2533 -0.008,-0.008 -0.0534,-0.0733 -0.0844,-0.0422 -0.0223,0.0222 -0.02,0.0622 -0.0422,0.0844 -0.0223,0.0222 -0.0656,0.017 -0.0844,0.0422 -0.0267,0.0356 -0.0257,0.0853 -0.0422,0.12665 -0.0117,0.0292 -0.0305,0.0552 -0.0422,0.0844 -0.0165,0.0413 -0.0282,0.0844 -0.0422,0.12665 -0.0141,0.0422 -0.0349,0.0828 -0.0422,0.12666 -0.007,0.0416 0,0.0844 0,0.12665 0,0.0422 0,0.0844 0,0.12665 0,0.0281 0,0.0563 0,0.0844 0,0.0604 -0.0199,0.0956 0.0422,0.12665 0.009,0.004 0.1207,0.006 0.12665,0 0.008,-0.008 0.12289,-0.23823 0.12666,-0.2533 0.007,-0.0273 0,-0.0563 0,-0.0844 0,-0.0844 0,-0.16887 0,-0.2533 0,-0.0563 0.0398,-0.20867 0,-0.16887 -0.0629,0.0629 -0.0563,0.16887 -0.0844,0.2533"
       id="path1525"
       inkscape:connector-curvature="0" />
    <path
       style="fill:none;stroke:#000000;stroke-width:0.26458332px;stroke-linecap:butt;stroke-linejoin:miter;stroke-opacity:1"
       d="m 152.81441,128.96553 c -0.0422,0.30959 -0.0921,0.61823 -0.12665,0.92878 -0.008,0.0699 0,0.14072 0,0.21109 0,0.0141 -0.0134,0.0467 0,0.0422 0.18988,-0.0633 0.10326,-0.0708 0.12665,-0.21109 0.007,-0.0439 0.0281,-0.0844 0.0422,-0.12665 0,-0.0563 -0.007,-0.11301 0,-0.16887 0.0265,-0.21195 0.082,-0.14138 0.0422,-0.37996 -0.0168,-0.10105 -0.0844,-0.19307 -0.0844,-0.29551 0,-0.64342 0.16613,-0.0307 0.0422,-0.4644 -0.0122,-0.0428 -0.0335,-0.083 -0.0422,-0.12665 -0.0261,-0.13042 0.0383,-0.0461 -0.0422,-0.12665 -0.0141,-0.0141 -0.0244,-0.0511 -0.0422,-0.0422 -0.0281,0.0141 -0.0281,0.0563 -0.0422,0.0844 -0.0141,0.0281 -0.0323,0.0546 -0.0422,0.0844 -0.0197,0.059 -0.0803,0.33395 -0.0844,0.37996 -0.008,0.0841 0.007,0.16916 0,0.2533 -0.007,0.0853 -0.0351,0.168 -0.0422,0.2533 -0.007,0.0841 0,0.16887 0,0.25331 0,0.21109 0,0.42217 0,0.63326 0,0.0281 -0.007,0.0571 0,0.0844 0.007,0.0294 0.0477,0.10826 0.0844,0.12665 0.0126,0.006 0.0323,0.01 0.0422,0 0.0223,-0.0222 0.026,-0.0574 0.0422,-0.0844 0.0261,-0.0435 0.0617,-0.0813 0.0844,-0.12665 0.0621,-0.12421 0.0999,-0.37288 0.12665,-0.50661 0.0227,-0.11367 0.0749,-0.3025 0.0422,-0.42217 -0.0249,-0.0911 -0.12665,-0.1589 -0.12665,-0.2533 0,-0.10718 0.0928,-0.19385 0.12665,-0.29552 0.009,-0.0267 0,-0.0563 0,-0.0844 0,-0.0846 0.0154,-0.12665 -0.0844,-0.12665 -0.0141,0 -0.0323,-0.01 -0.0422,0 -0.0223,0.0222 -0.0281,0.0563 -0.0422,0.0844 -0.0332,0.0664 -0.0615,0.0916 -0.0422,0.16887 0.0216,0.0863 0.0908,0.16453 0.0844,0.2533 -0.009,0.11993 -0.0996,0.22058 -0.12665,0.33774 -0.0158,0.0686 0,0.14072 0,0.21108 0,0.11258 0,0.22516 0,0.33774 0,0.11713 -0.0189,0.11944 0.0422,0.21109 0.011,0.0166 0.0223,0.0422 0.0422,0.0422 0.0473,0 0.12352,-0.23141 0.12665,-0.25331 0.0159,-0.11144 -0.0124,-0.22584 0,-0.33773 0.009,-0.0784 0.0772,-0.28676 0.0422,-0.37996 -0.0247,-0.0659 -0.12028,-0.0988 -0.12665,-0.16887 -0.003,-0.0366 0.17675,-0.39712 0.0422,-0.46439 -0.0126,-0.006 -0.0282,0 -0.0422,0 -0.0998,0 -0.0844,0.0421 -0.0844,0.12665 0,0.0422 -0.0102,0.0857 0,0.12666 0.0184,0.0735 0.0913,0.13561 0.0844,0.21108 -0.009,0.094 -0.10182,0.16223 -0.12665,0.2533 -0.0185,0.0679 0,0.14073 0,0.21109 0,0.18294 0,0.36588 0,0.54882"
       id="path1527"
       inkscape:connector-curvature="0" />
    <path
       style="fill:none;stroke:#000000;stroke-width:0.26458332px;stroke-linecap:butt;stroke-linejoin:miter;stroke-opacity:1"
       d="m 146.21927,130.44628 c 0.58212,0 1.16423,0 1.74635,0"
       id="path1533"
       inkscape:connector-curvature="0" />
    <path
       style="fill:none;stroke:#000000;stroke-width:0.26458332px;stroke-linecap:butt;stroke-linejoin:miter;stroke-opacity:1"
       d="m 148.02533,129.99103 c -0.0265,0.0832 -0.0714,0.15847 -0.10449,0.23882 -0.006,0.0146 -0.0109,0.0296 -0.0149,0.0448 -0.0296,0.11097 -0.075,0.23692 -0.0821,0.35822 -10e-4,0.0199 0,0.0398 0,0.0597 0,0.0224 -10e-4,0.0448 0,0.0672 0.001,0.02 0.005,0.0398 0.007,0.0597 0.003,0.0224 0.004,0.045 0.007,0.0672 0.011,0.0622 0.0147,0.0555 0.0373,0.11195 0.008,0.0197 0.014,0.0402 0.0224,0.0597 0.007,0.0154 0.0149,0.0299 0.0224,0.0448 0.007,0.0149 0.0149,0.0298 0.0224,0.0448 0.0572,0.11446 -0.003,0.006 0.0373,0.0597 0.0179,0.0239 -0.005,0.008 0.0224,0.0224"
       id="path1535"
       inkscape:connector-curvature="0" />
    <path
       style="fill:none;stroke:#000000;stroke-width:0.26458332px;stroke-linecap:butt;stroke-linejoin:miter;stroke-opacity:1"
       d="m 143.3684,135.87935 c -0.0896,0.23882 -0.18679,0.4749 -0.26867,0.71646 -0.1172,0.34574 -0.21535,0.69768 -0.32837,1.04482 -0.24488,0.75212 0.0904,-0.36069 -0.20897,0.53734 -0.0359,0.10763 -0.0551,0.22025 -0.0896,0.32837 -0.0353,0.11099 -0.0812,0.21837 -0.11941,0.32837 -0.0414,0.11888 -0.0811,0.23835 -0.11941,0.35823 -0.12666,0.3958 -0.24407,0.79454 -0.35822,1.19408 -0.0398,0.13931 -0.0783,0.27901 -0.11941,0.41793 -0.0384,0.12977 -0.0822,0.25794 -0.11941,0.38808 -0.0424,0.14853 -0.0783,0.29886 -0.11941,0.44778 -0.0385,0.13966 -0.0843,0.27737 -0.11941,0.41793 -0.14018,0.56072 -0.0485,0.27176 -0.14926,0.83586 -0.0251,0.14025 -0.0687,0.27699 -0.0896,0.41793 -0.019,0.12834 -0.0203,0.25869 -0.0298,0.38807 -0.0103,0.13929 -0.0195,0.27865 -0.0299,0.41793 -0.01,0.12939 -0.0249,0.25843 -0.0299,0.38808 -0.005,0.12926 0,0.25872 0,0.38808 0,0.35829 -0.0166,0.71822 0.0299,1.07467 0.006,0.0498 0.10298,0.56447 0.11941,0.6269 0.051,0.1937 0.13677,0.38156 0.20896,0.5672 0.0308,0.0792 0.0495,0.16379 0.0896,0.2388 0.0403,0.0755 0.0995,0.13931 0.14926,0.20897 0.0497,0.0696 0.0995,0.13931 0.14926,0.20896 0.11511,0.16115 0.16648,0.24404 0.29852,0.38808 0.11249,0.12271 0.25788,0.25594 0.38808,0.35822 0.0673,0.0529 0.13931,0.0995 0.20896,0.14927 0.13854,0.099 0.29739,0.21889 0.44778,0.29852 0.0866,0.0459 0.18,0.0777 0.26867,0.1194 0.0805,0.0379 0.15652,0.0855 0.23882,0.11941 0.0873,0.0359 0.17865,0.0611 0.26867,0.0896 0.28187,0.089 0.28941,0.0908 0.56719,0.14927 0.11036,0.0232 0.52456,0.10545 0.62689,0.11941 0.1089,0.0148 0.21892,0.0199 0.32837,0.0298 0.10946,0.01 0.21888,0.0203 0.32838,0.0298 0.11937,0.0104 0.23852,0.0247 0.35822,0.0299 0.10936,0.005 0.21892,0 0.32838,0 0.23881,0 0.47763,0 0.71645,0 0.11941,0 0.23881,0 0.35822,0 0.12936,0 0.25882,0.005 0.38808,0 0.49456,-0.0198 0.22418,-0.0305 0.71645,-0.0896 0.12882,-0.0155 0.25926,-0.0144 0.38808,-0.0298 0.36581,-0.0439 0.35651,-0.067 0.71645,-0.14926 0.22832,-0.0522 0.45827,-0.0971 0.68659,-0.14927 0.41023,-0.0938 0.28152,-0.0719 0.65676,-0.17911 0.6628,-0.18937 0.005,0.0202 0.62688,-0.20896 0.26003,-0.0958 0.28791,-0.0769 0.53734,-0.20897 0.083,-0.0439 0.157,-0.10323 0.23882,-0.14926 0.0776,-0.0436 0.16124,-0.0758 0.23882,-0.11942 0.18318,-0.10302 0.27935,-0.17821 0.44778,-0.29851 0.28362,-0.20258 0.14397,-0.0936 0.41793,-0.32837 0.0696,-0.0597 0.14156,-0.11689 0.20896,-0.17912 0.18183,-0.16784 0.34373,-0.35888 0.47764,-0.56719 0.10204,-0.15873 0.13972,-0.24481 0.20896,-0.41792 0.0316,-0.0789 0.058,-0.15989 0.0896,-0.23882 0.0281,-0.0704 0.0656,-0.13707 0.0896,-0.20896 0.026,-0.0778 0.0398,-0.15921 0.0597,-0.23882 0.0199,-0.0796 0.0409,-0.15894 0.0597,-0.23882 0.042,-0.1786 0.0796,-0.35822 0.11942,-0.53733 0.0199,-0.0896 0.0446,-0.17818 0.0597,-0.26867 0.0148,-0.0889 0.0199,-0.17912 0.0299,-0.26867 0.01,-0.0896 0.0249,-0.1787 0.0299,-0.26867 0.005,-0.0894 -0.005,-0.17924 0,-0.26867 0.005,-0.0999 0.0246,-0.19866 0.0298,-0.29852 0.005,-0.0894 0,-0.17911 0,-0.26867 0,-0.0995 0,-0.19901 0,-0.29852 0,-0.0896 0,-0.17911 0,-0.26867 0,-0.0995 0.005,-0.19914 0,-0.29852 -0.01,-0.19976 -0.0497,-0.39729 -0.0597,-0.59704 -0.005,-0.0994 0.01,-0.19951 0,-0.29852 -0.0101,-0.10098 -0.0453,-0.19807 -0.0597,-0.29852 -0.0156,-0.10881 -0.0199,-0.21892 -0.0299,-0.32838 -0.005,-0.0581 -0.0495,-0.55551 -0.0597,-0.62689 -0.0215,-0.21221 -0.0893,-0.41631 -0.11941,-0.62689 -0.0155,-0.10881 -0.0143,-0.21957 -0.0299,-0.32838 -0.0579,-0.40523 -0.0556,-0.18431 -0.11942,-0.56719 -0.0148,-0.0889 -0.015,-0.17979 -0.0299,-0.26867 -0.0194,-0.11625 -0.0894,-0.38763 -0.11941,-0.50748 -0.0793,-0.3174 -0.16531,-0.6257 -0.29851,-0.92542 -0.0361,-0.0813 -0.0844,-0.15701 -0.11941,-0.23881 -0.0124,-0.0289 -0.0137,-0.0626 -0.0299,-0.0896 -0.0145,-0.0241 -0.0428,-0.0372 -0.0597,-0.0597 -0.0134,-0.0178 -0.0175,-0.0412 -0.0299,-0.0597 -0.008,-0.0117 -0.0236,-0.0173 -0.0298,-0.0298 -0.004,-0.009 0,-0.0199 0,-0.0298"
       id="path1551"
       inkscape:connector-curvature="0" />
    <path
       style="fill:none;stroke:#000000;stroke-width:0.26458332px;stroke-linecap:butt;stroke-linejoin:miter;stroke-opacity:1"
       d="m 151.12572,138.6966 c -0.28071,1.04261 -0.0174,0.0431 -0.35885,1.43539 -0.0593,0.2416 -0.0789,0.24898 -0.12665,0.5066 -0.0181,0.0978 -0.0259,0.19737 -0.0422,0.29553 -0.0377,0.22596 -0.0933,0.44883 -0.12665,0.67547 -0.0186,0.12608 -0.0252,0.25367 -0.0422,0.37996 -0.0181,0.13412 -0.0457,0.26687 -0.0633,0.40106 -0.0512,0.38951 -0.0367,0.44299 -0.0844,0.84434 -0.0676,0.56776 -0.0658,0.31703 -0.10554,0.88657 -0.0108,0.15458 -0.0108,0.30977 -0.0211,0.46438 -0.0108,0.16209 -0.035,0.32322 -0.0422,0.4855 -0.007,0.15465 0,0.3096 0,0.46439 0,0.1548 0,0.30959 0,0.46439 0,0.30313 -0.007,0.6263 0.0211,0.92878 0.0225,0.2415 0.0929,0.62753 0.14776,0.86545 0.0311,0.1347 0.0704,0.26738 0.10554,0.40107 0.0352,0.13369 0.0651,0.26886 0.10555,0.40106 0.10817,0.35402 0.25983,0.69218 0.44328,1.01322 0.10014,0.17525 0.22632,0.37426 0.35885,0.52772 0.065,0.0753 0.13884,0.14265 0.21108,0.21108 0.2197,0.20813 0.28343,0.24639 0.59104,0.42217 0.0602,0.0344 0.12321,0.0659 0.18998,0.0844 0.0614,0.017 0.12665,0.0141 0.18998,0.0211 0.0633,0.007 0.12626,0.0211 0.18998,0.0211 0.0637,0 0.12723,-0.01 0.18998,-0.0211 0.1285,-0.0227 0.21176,-0.046 0.31662,-0.12665 0.12721,-0.0979 0.29301,-0.34452 0.35885,-0.44328 0.0383,-0.0575 0.18764,-0.34376 0.21109,-0.40107 0.0337,-0.0824 0.0553,-0.16919 0.0844,-0.2533 0.0342,-0.0988 0.0735,-0.19594 0.10554,-0.29552 0.0476,-0.14805 0.13744,-0.48956 0.16887,-0.63326 0.0245,-0.11189 0.0402,-0.22555 0.0633,-0.33773 0.0262,-0.12709 0.0631,-0.25199 0.0844,-0.37995 0.021,-0.12571 0.0247,-0.25375 0.0422,-0.37996 0.0787,-0.56639 0.0593,-0.20052 0.10554,-0.80213 0.004,-0.053 0.0401,-0.78183 0.0422,-0.82324 0.007,-0.14073 0.0141,-0.28145 0.0211,-0.42217 0.007,-0.14073 0.0176,-0.28132 0.0211,-0.42218 0.004,-0.14068 0,-0.28144 0,-0.42217 0,-0.14072 0.007,-0.28162 0,-0.42217 -0.007,-0.14125 -0.0314,-0.28116 -0.0422,-0.42217 -0.038,-0.49384 0.003,-0.30084 -0.0633,-0.78102 -0.0177,-0.12718 -0.0452,-0.25285 -0.0633,-0.37996 -0.017,-0.11923 -0.0236,-0.23985 -0.0422,-0.35884 -0.0166,-0.10635 -0.0456,-0.21046 -0.0633,-0.31663 -0.0175,-0.10503 -0.0272,-0.21123 -0.0422,-0.31663 -0.0131,-0.0916 -0.0276,-0.18303 -0.0422,-0.27442 -0.0154,-0.0963 -0.0391,-0.25 -0.0633,-0.35884 -0.0126,-0.0566 -0.0282,-0.11258 -0.0422,-0.16887"
       id="path1569"
       inkscape:connector-curvature="0" />
    <path
       style="fill:none;stroke:#000000;stroke-width:0.26458332px;stroke-linecap:butt;stroke-linejoin:miter;stroke-opacity:1"
       d="m 143.3684,135.87935 c -0.19353,0.0525 -0.38054,0.14372 -0.58059,0.15757 -0.26057,0.018 -0.52076,-0.0412 -0.78101,-0.0633 -0.21141,-0.018 -0.42186,-0.0449 -0.63326,-0.0633 -0.16882,-0.0147 -0.33774,-0.0281 -0.50661,-0.0422 -0.0844,-0.007 -0.16864,-0.0179 -0.2533,-0.0211 -0.0984,-0.004 -0.19708,0.004 -0.29552,0 -0.0987,-0.004 -0.197,-0.0143 -0.29553,-0.0211 -0.10552,-0.007 -0.21108,-0.0141 -0.31662,-0.0211 -0.10555,-0.007 -0.21091,-0.0177 -0.31663,-0.0211 -0.11252,-0.004 -0.22521,0.003 -0.33774,0 -0.91475,-0.0277 0.17768,-0.0211 -0.69659,-0.0211 -0.35884,0 -0.71769,0 -1.07654,0 -0.11961,0 -0.23928,-0.004 -0.35884,0 -0.11977,0.004 -0.23923,0.0141 -0.35885,0.0211 -0.23923,0.0141 -0.47849,0.0277 -0.71769,0.0422 -0.11259,0.007 -0.22516,0.0141 -0.33774,0.0211 -0.11258,0.007 -0.22543,0.0106 -0.33774,0.0211 -0.42357,0.0397 -0.24388,0.042 -0.65436,0.0844 -0.0982,0.0102 -0.19776,0.007 -0.29553,0.0211 -0.0997,0.0142 -0.19646,0.045 -0.29552,0.0633 -0.63941,0.0984 0.0777,-0.0206 -0.52771,0.10554 -0.0838,0.0175 -0.16966,0.024 -0.25331,0.0422 -0.0784,0.017 -0.15505,0.0413 -0.23219,0.0633 -0.1238,0.0354 -0.26085,0.0746 -0.37996,0.12666 -0.0577,0.0252 -0.11184,0.0578 -0.16886,0.0844 -0.0486,0.0226 -0.0998,0.0394 -0.14776,0.0633 -0.10943,0.0547 -0.16498,0.0904 -0.25331,0.16887 -0.0298,0.0264 -0.0563,0.0563 -0.0844,0.0844 -0.0518,0.0518 -0.11142,0.10346 -0.14776,0.16887 -0.0184,0.0331 -0.0282,0.0704 -0.0422,0.10554 -0.0141,0.0352 -0.0281,0.0704 -0.0422,0.10554 -0.0343,0.0857 -0.0549,0.11876 -0.0633,0.21109 -0.004,0.042 0,0.0844 0,0.12665 0,0.0352 0,0.0704 0,0.10554 0,0.11412 -0.007,0.14111 0.0211,0.25331 0.0522,0.20896 0.022,0.0485 0.10554,0.23219 0.0184,0.0405 0.0209,0.0876 0.0422,0.12665 0.0216,0.0396 0.0579,0.0691 0.0844,0.10555 0.0298,0.041 0.0523,0.0874 0.0844,0.12665 0.0315,0.0385 0.0704,0.0704 0.10554,0.10554 0.15335,0.15335 0.0523,0.06 0.21109,0.18998 0.0851,0.0696 0.16538,0.14514 0.2533,0.21109 0.0593,0.0445 0.21069,0.13913 0.27442,0.16887 0.0545,0.0254 0.11379,0.0392 0.16887,0.0633 0.32499,0.14218 0.0122,0.0329 0.33773,0.14776 0.0888,0.0313 0.31406,0.1049 0.40107,0.12665 0.13922,0.0348 0.28256,0.0512 0.42217,0.0844 0.078,0.0186 0.15396,0.0455 0.23219,0.0633 0.0767,0.0174 0.15469,0.0287 0.2322,0.0422 0.16866,0.0293 0.33774,0.0563 0.50661,0.0844 0.34459,0.0574 0.16869,0.0292 0.52771,0.0844 0.0915,0.0141 0.18243,0.032 0.27441,0.0422 0.0982,0.0109 0.19733,0.0106 0.29552,0.0211 0.0989,0.0106 0.19658,0.0316 0.29552,0.0422 0.0982,0.0105 0.19702,0.0141 0.29553,0.0211 0.0985,0.007 0.19682,0.0177 0.29551,0.0211 0.10549,0.004 0.21115,-0.004 0.31663,0 0.10572,0.004 0.21092,0.0175 0.31663,0.0211 0.20393,0.007 0.40822,-0.007 0.61215,0 0.10572,0.004 0.21092,0.0175 0.31663,0.0211 0.0985,0.003 0.19702,0 0.29552,0 0.10555,0 0.21109,0 0.31663,0 0.0985,0 0.19701,0 0.29552,0 0.0985,0 0.19708,0.004 0.29552,0 0.0917,-0.003 0.18274,-0.0176 0.27442,-0.0211 0.0914,-0.004 0.18301,0.004 0.27441,0 0.0847,-0.003 0.16865,-0.0174 0.2533,-0.0211 0.58671,0 -0.10411,0.008 0.44328,-0.0211 0.0632,-0.003 0.12676,0.004 0.18998,0 0.0566,-0.003 0.11229,-0.0171 0.16887,-0.0211 0.0421,-0.003 0.0846,0.004 0.12665,0 0.0357,-0.003 0.0699,-0.0172 0.10554,-0.0211 0.028,-0.003 0.0568,0.006 0.0844,0 0.0261,-0.005 0.0211,-0.0259 0.0211,-0.0422"
       id="path1585"
       inkscape:connector-curvature="0" />
    <path
       style="fill:none;stroke:#000000;stroke-width:0.26458332px;stroke-linecap:butt;stroke-linejoin:miter;stroke-opacity:1"
       d="m 149.75675,149.49191 c 0,1.1839 0.0163,0.19228 -0.0597,1.52246 -0.004,0.0695 0.005,0.13946 0,0.20896 -0.005,0.08 -0.0251,0.15873 -0.0298,0.23882 -0.0211,0.35947 0.0188,0.16917 0,0.50748 -0.006,0.0998 -0.0246,0.19866 -0.0299,0.29852 -0.005,0.0894 0,0.17912 0,0.26868 0,0.0995 0,0.19901 0,0.29851 0,0.0995 0,0.19902 0,0.29852 0,0.0995 -0.005,0.19914 0,0.29853 0.005,0.0999 0.0199,0.19901 0.0299,0.29852 0.01,0.0995 0.015,0.19962 0.0298,0.29853 0.0151,0.10034 0.0447,0.19815 0.0597,0.29851 0.0148,0.0989 0.015,0.19962 0.0299,0.29853 0.0524,0.34931 0.0589,0.25359 0.14926,0.59703 0.0233,0.0887 0.0351,0.18028 0.0597,0.26867 0.0253,0.091 0.0597,0.17911 0.0896,0.26868 0.0299,0.0896 0.0536,0.18137 0.0896,0.26866 0.0339,0.0823 0.0796,0.15921 0.11941,0.23882 0.0993,0.19862 0.13771,0.2943 0.26866,0.47763 0.13491,0.18887 0.32223,0.36854 0.50749,0.50748 0.0574,0.0431 0.11941,0.0796 0.17911,0.11941 0.0597,0.0398 0.11494,0.0873 0.17912,0.11942 0.0563,0.0281 0.12101,0.0355 0.17911,0.0597 0.0616,0.0257 0.11578,0.0685 0.17911,0.0896 0.0574,0.0191 0.11941,0.0199 0.17911,0.0298 0.23801,0.0397 0.11859,0.0299 0.35823,0.0299 0.2543,0 0.0998,0.0117 0.32837,-0.0299 0.0596,-0.0108 0.12223,-0.009 0.17911,-0.0298 0.0545,-0.0198 0.0983,-0.0618 0.14926,-0.0896 0.0618,-0.0337 0.269,-0.12633 0.32838,-0.17911 0.0476,-0.0423 0.0768,-0.1019 0.1194,-0.14926 0.13386,-0.14873 0.16006,-0.13559 0.26867,-0.29852 0.0445,-0.0667 0.0796,-0.13931 0.11941,-0.20897 0.0398,-0.0697 0.0835,-0.1372 0.11941,-0.20896 0.0395,-0.079 0.15666,-0.37145 0.17911,-0.44778 0.0259,-0.088 0.0338,-0.18066 0.0597,-0.26868 0.024,-0.0816 0.0656,-0.15725 0.0896,-0.23881 0.0255,-0.0868 0.10386,-0.48942 0.11941,-0.56719 0.0199,-0.0995 0.0447,-0.19816 0.0597,-0.29852 0.0149,-0.0989 0.0199,-0.19901 0.0299,-0.29852 0.01,-0.0995 0.0204,-0.19897 0.0299,-0.29853 0.0104,-0.1094 0.0246,-0.21858 0.0298,-0.32836 0.005,-0.0994 0,-0.19902 0,-0.29852 0,-0.10946 0,-0.21892 0,-0.32839 0,-0.10944 0,-0.2189 0,-0.32836 0,-0.10947 0.005,-0.21903 0,-0.32837 -0.0151,-0.33322 -0.0898,-0.65808 -0.14926,-0.98512 -0.058,-0.31885 -0.11848,-0.63695 -0.17911,-0.95527 -0.0208,-0.10929 -0.0379,-0.21928 -0.0597,-0.32837 -0.088,-0.43995 -0.18287,-0.8798 -0.29853,-1.3135 -0.0373,-0.13998 -0.0868,-0.27675 -0.1194,-0.41792 -0.0136,-0.059 -0.0223,-0.11906 -0.0299,-0.17911 -0.002,-0.0197 0.005,-0.0404 0,-0.0597 -0.0387,-0.15501 -0.0298,0.0319 -0.0298,-0.11941"
       id="path1591"
       inkscape:connector-curvature="0" />
    <path
       style="fill:none;stroke:#000000;stroke-width:0.26458332px;stroke-linecap:butt;stroke-linejoin:miter;stroke-opacity:1"
       d="m 142.65195,148.59635 c -0.0665,0.76439 -0.046,0.62834 -0.14926,1.40305 -0.008,0.06 -0.0252,0.11876 -0.0299,0.17911 -0.005,0.0695 0.005,0.13948 0,0.20896 -0.005,0.0702 -0.0199,0.13931 -0.0299,0.20898 0,0.0796 0.005,0.15934 0,0.2388 -0.0799,0.71867 0.01,-0.1802 -0.0299,0.53735 -0.005,0.09 -0.0251,0.17868 -0.0299,0.26866 -0.005,0.0994 0,0.19902 0,0.29852 0,0.0995 0,0.19902 0,0.29852 0,0.10946 -0.005,0.21903 0,0.32837 0.005,0.1098 0.0249,0.21858 0.0299,0.32839 0.005,0.10933 -0.01,0.21935 0,0.32836 0.0101,0.1108 0.0447,0.21815 0.0597,0.32838 0.0148,0.10889 0.015,0.21947 0.0299,0.32837 0.015,0.11023 0.0447,0.21814 0.0597,0.32837 0.0541,0.39683 -0.004,0.26309 0.0896,0.65675 0.0241,0.10106 0.0644,0.19773 0.0896,0.29852 0.0804,0.32176 0.0255,0.26674 0.14927,0.56719 0.0339,0.0823 0.0837,0.15727 0.11941,0.23882 0.0341,0.0779 0.0515,0.16277 0.0896,0.23881 0.0321,0.0642 0.0818,0.118 0.11941,0.17911 0.0421,0.0683 0.0713,0.14479 0.11941,0.20897 0.0422,0.0563 0.0995,0.0995 0.14926,0.14926 0.0497,0.0498 0.0923,0.10787 0.14926,0.14927 0.054,0.0393 0.11941,0.0597 0.17911,0.0896 0.14969,0.0748 0.1966,0.10885 0.35823,0.14925 0.0587,0.0147 0.1194,0.0199 0.17911,0.0299 0.24782,0.0413 0.11858,0.0299 0.38808,0.0299 0.0597,0 0.11965,0.005 0.17911,0 0.0505,-0.005 0.0993,-0.0208 0.14926,-0.0299 0.17008,-0.0309 0.17771,-0.0142 0.32837,-0.0896 0.0923,-0.0461 0.22656,-0.137 0.29852,-0.20896 0.0451,-0.0451 0.0768,-0.10191 0.11941,-0.14926 0.45949,-0.51054 -0.17774,0.24313 0.29852,-0.32839 0.0498,-0.0597 0.10691,-0.11394 0.14926,-0.17911 0.0874,-0.13453 0.15921,-0.27861 0.23882,-0.41792 0.0398,-0.0696 0.0855,-0.13626 0.11941,-0.20896 0.036,-0.077 0.0597,-0.15921 0.0896,-0.23882 0.0299,-0.0796 0.0656,-0.15725 0.0896,-0.23882 0.0259,-0.088 0.0387,-0.17936 0.0597,-0.26867 0.0188,-0.0799 0.0462,-0.15787 0.0597,-0.23881 0.0164,-0.0986 0.0199,-0.19902 0.0299,-0.29852 0.01,-0.0995 0.0199,-0.19902 0.0299,-0.29852 0.01,-0.0995 0.0249,-0.19865 0.0299,-0.29853 0.005,-0.0994 -0.005,-0.19912 0,-0.29852 0.005,-0.10979 0.0249,-0.21857 0.0299,-0.32837 0.005,-0.10935 0,-0.21891 0,-0.32838 0,-0.0995 0,-0.19901 0,-0.29851 0,-0.10946 0.005,-0.21904 0,-0.32838 -0.005,-0.0999 -0.0199,-0.19902 -0.0299,-0.29853 -0.01,-0.0995 -0.0194,-0.19905 -0.0299,-0.29851 -0.009,-0.0896 -0.015,-0.17979 -0.0299,-0.26868 -0.0151,-0.0905 -0.0438,-0.17831 -0.0597,-0.26866 -0.014,-0.079 -0.0151,-0.15997 -0.0299,-0.23881 -0.009,-0.0475 -0.0975,-0.39088 -0.1194,-0.4478 -0.024,-0.0623 -0.0639,-0.11748 -0.0896,-0.1791 -0.0242,-0.0581 -0.0363,-0.12068 -0.0597,-0.17911 -0.0165,-0.0413 -0.0398,-0.0796 -0.0597,-0.11941 -0.01,-0.0199 -0.0175,-0.0412 -0.0298,-0.0597 -0.0369,-0.0553 -0.0299,-0.003 -0.0299,-0.0597"
       id="path1595"
       inkscape:connector-curvature="0" />
    <path
       style="fill:none;stroke:#000000;stroke-width:0.26458332px;stroke-linecap:butt;stroke-linejoin:miter;stroke-opacity:1"
       d="m 133.48736,135.90921 -0.0896,-7.97051"
       id="path1597"
       inkscape:connector-curvature="0" />
    <path
       style="fill:none;stroke:#000000;stroke-width:0.26458332px;stroke-linecap:butt;stroke-linejoin:miter;stroke-opacity:1"
       d="m 133.39776,127.9387 -10.74671,1.79113 0.44778,11.01542 7.22421,3.64195"
       id="path1599"
       inkscape:connector-curvature="0" />
    <path
       style="fill:none;stroke:#000000;stroke-width:0.26458332px;stroke-linecap:butt;stroke-linejoin:miter;stroke-opacity:1"
       d="m 130.32304,144.3872 9.52281,-4.239"
       id="path1601"
       inkscape:connector-curvature="0" />
    <path
       style="fill:none;stroke:#000000;stroke-width:0.26458332px;stroke-linecap:butt;stroke-linejoin:miter;stroke-opacity:1"
       d="m 123.09883,140.74525 8.47799,-2.92551"
       id="path1603"
       inkscape:connector-curvature="0" />
    <path
       style="fill:none;stroke:#000000;stroke-width:0.26458332px;stroke-linecap:butt;stroke-linejoin:miter;stroke-opacity:1"
       d="m 131.78579,136.83462 -7.8511,2.68669 -0.41793,-9.10488 9.10489,-1.55231 0.0299,7.2242"
       id="path1605"
       inkscape:connector-curvature="0" />
  </g>
</svg>
